<svg width="726" height="403" viewBox="0 0 726 403" fill="none" xmlns="http://www.w3.org/2000/svg">
<path d="M141.022 288.428C43.3278 303.005 2.89607 318.881 3.64754 325.212C4.18283 329.706 25.6048 330.527 26.2224 337.472C26.8572 344.662 4.33381 348.555 4.29264 353.605C4.20342 365.44 127.53 401.946 275.819 382.644C394.967 367.136 454.638 325.435 520.904 363.284C542.676 375.719 554.964 390.918 587.335 398.777C645.545 412.908 708.243 388.628 709.231 369.093C709.917 355.535 680.634 349.338 681.499 333.599C682.545 314.6 725.972 310.088 726 301.333C726.072 277.85 413.812 247.726 141.022 288.428Z" fill="#EBEFF2"/>
<path d="M78.1386 335.539C73.5577 336.075 22.7324 342.114 22.9932 346.186C23.1785 349.097 49.4352 350.629 73.3003 349.09C111.32 346.636 147.047 336.137 146.502 332.635C145.891 328.68 98.9395 333.102 78.1386 335.539Z" fill="#D8DEE8"/>
<path d="M176.495 345.863C147.692 349.677 133.288 351.583 132.962 353.928C132.327 358.477 157.293 367.537 183.269 370.384C198.535 372.056 230.062 373.329 231.641 366.188C233.161 359.304 207.168 343.13 181.656 345.214C180.922 345.276 179.436 345.472 176.495 345.863Z" fill="#D8DEE8"/>
<path d="M633.123 375.87C626.669 376.234 586.001 378.521 585.719 384.58C585.513 389.044 607.189 395.529 628.285 395.227C655.036 394.846 680.37 383.561 679.56 378.771C678.637 373.312 643.551 375.283 633.123 375.87Z" fill="#D8DEE8"/>
<g opacity="0.5">
<path opacity="0.5" d="M132.979 4.10965L46.0042 0L0 71.4297L46.0042 144.418L132.979 143.254L174.128 74.3789L132.979 4.10965Z" fill="url(#paint0_linear_0_6086)"/>
<path opacity="0.5" d="M213.296 8.3875L181.09 6.87341L164.633 34.0102L181.09 62.2902L213.296 63.0078L229.053 36.2452L213.296 8.3875Z" fill="url(#paint1_linear_0_6086)"/>
<path opacity="0.5" d="M120.784 150.292L69.9653 151.123L43.7051 193.991L69.9653 235.064L120.784 232.424L145.383 190.517L120.784 150.292Z" fill="url(#paint2_linear_0_6086)"/>
</g>
<path opacity="0.5" d="M545.867 85.9902L437.817 87.9472C429.03 88.1051 421.81 96.0841 421.81 105.766C421.81 115.448 429.03 122.96 437.817 122.551L545.867 117.539C553.077 117.206 558.848 109.955 558.848 101.344C558.852 92.7366 553.077 85.8598 545.867 85.9902Z" fill="url(#paint3_linear_0_6086)"/>
<path d="M531.84 47.8086L477.244 46.94C473.013 46.8713 469.564 50.7097 469.564 55.5095C469.564 60.3092 473.016 64.206 477.244 64.2095L531.84 64.2816C535.663 64.285 538.741 60.6251 538.741 56.1035C538.744 51.5818 535.663 47.867 531.84 47.8086Z" fill="url(#paint4_linear_0_6086)"/>
<path d="M555.366 56.2065C555.366 60.6389 552.391 64.2267 548.702 64.2232C544.986 64.2164 541.956 60.5771 541.956 56.0932C541.956 51.6093 544.986 48.0181 548.702 48.0799C552.391 48.1348 555.366 51.7741 555.366 56.2065Z" fill="url(#paint5_linear_0_6086)"/>
<g opacity="0.5">
<path opacity="0.5" d="M553.358 68.2058L512.271 68.2951C509.124 68.302 506.561 71.2889 506.561 74.966C506.561 78.643 509.124 81.5888 512.271 81.5442L553.358 80.9811C556.268 80.9399 558.615 78.0628 558.615 74.5505C558.618 71.0383 556.268 68.199 553.358 68.2058Z" fill="url(#paint6_linear_0_6086)"/>
<path opacity="0.5" d="M571.338 74.4167C571.338 77.8705 569.057 80.6996 566.229 80.7373C563.385 80.7751 561.072 77.9838 561.072 74.4956C561.072 71.0108 563.388 68.1784 566.229 68.1749C569.057 68.1715 571.338 70.9628 571.338 74.4167Z" fill="url(#paint7_linear_0_6086)"/>
</g>
<path d="M680.181 302.24L82.9839 297.903L82.9874 311.06C82.9874 314.63 85.5952 317.665 89.1227 318.208L257.997 344.085C260.001 344.39 262.032 344.473 264.057 344.325L673.696 314.713C677.354 314.448 680.184 311.403 680.184 307.733L680.181 302.24Z" fill="#BFC8D6"/>
<path d="M463.456 280.534L89.1604 304.67C82.4624 305.103 77.0168 300.526 77.0168 294.449L76.9722 50.9844C76.9722 44.9074 82.4178 39.9807 89.1124 39.9807L463.412 39.912C468.929 39.912 473.394 44.3615 473.394 49.8548L473.435 269.943C473.435 275.436 468.974 280.177 463.456 280.534Z" fill="#BFC8D6"/>
<path d="M469.427 280.531L95.1277 304.67C88.4297 305.103 82.9841 300.526 82.9807 294.449L82.9361 50.9844C82.9361 44.9074 88.3782 39.9807 95.0797 39.9807L469.379 39.912C474.897 39.912 479.357 44.365 479.361 49.8582L479.402 269.946C479.406 275.436 474.945 280.177 469.427 280.531Z" fill="#D8DEE8"/>
<path d="M457.764 265.019L109.145 285.986C103.696 286.313 99.2623 282.56 99.2623 277.599L99.2246 64.4428C99.2246 59.4817 103.651 55.4442 109.103 55.4201L457.726 54.0434C462.276 54.0262 465.961 57.6724 465.961 62.194L465.996 256.34C465.996 260.858 462.314 264.745 457.764 265.019Z" fill="#EFF2F6"/>
<path d="M295.45 46.6001C295.45 48.8626 293.525 50.7028 291.144 50.7097C288.763 50.7166 286.827 48.8832 286.827 46.6172C286.827 44.3513 288.759 42.511 291.14 42.5076C293.525 42.5041 295.45 44.3375 295.45 46.6001Z" fill="white"/>
<path opacity="0.48" d="M380.747 213.894C351.742 199.763 328.94 217.681 306.928 200.01C293.584 189.298 300.134 181.309 283.712 165.299C265.525 147.57 253.687 153.53 235.408 137.575C212.298 117.398 223.852 101.694 203.943 87.209C179.793 69.634 153.756 85.9112 130.766 69.0572C120.853 61.7889 115.41 51.2178 112.566 39.9772L90.0768 39.9806C86.1341 39.9806 82.9361 42.8749 82.9361 46.4455L82.9807 298.992C82.9807 302.562 86.1822 305.247 90.1248 304.993L473.548 280.267C475.432 280.146 477.1 279.151 478.17 277.709C450.102 276.789 432.856 268.267 421.831 259.457C400.268 242.222 404.005 225.224 380.747 213.894Z" fill="white"/>
<path d="M484.343 279.858L82.9839 305.264L257.99 332.082C259.994 332.387 262.025 332.47 264.05 332.322L680.181 302.24L490.729 280.026C488.612 279.779 486.474 279.721 484.343 279.858Z" fill="white"/>
<path opacity="0.47" d="M141.55 305.47L475.693 284.005L579.11 296.032L247.847 318.974L141.55 305.47Z" fill="#D8DEE8"/>
<path d="M214.727 169.22L186.796 72.2467C144.632 85.8872 114.106 125.418 113.938 172.111L214.727 169.22Z" fill="#D8DEE8"/>
<path d="M140.003 178.177C141.571 200.374 152.246 220.05 168.315 233.488L211.986 176.111L140.003 178.177Z" fill="white"/>
<path d="M220.876 165.969C237.676 149.873 257.911 130.444 273.973 114.95C259.726 101.371 240.442 93.0387 219.212 93.0387C212.768 93.0387 206.506 93.8078 200.508 95.2566L220.876 165.969Z" fill="white"/>
<path d="M224.383 172.039L285.193 216.73C293.679 204.085 298.627 188.869 298.627 172.495C298.627 152.304 291.099 133.871 278.698 119.853C274.251 124.141 269.31 128.903 263.888 134.115C247.459 149.921 230.926 165.766 224.383 172.039Z" fill="white"/>
<path d="M222.616 179.19L223.793 251.822C246.975 250.503 267.498 239.235 281.162 222.216L222.616 179.19Z" fill="white"/>
<path d="M215.856 182.267L173.719 237.628C186.037 246.26 200.916 251.482 216.988 251.925L215.856 182.267Z" fill="white"/>
<path d="M321.659 111.105V172.423C321.659 174.459 323.306 176.063 325.337 176.008L445.356 172.684C447.202 172.633 448.698 171.023 448.698 169.083V110.731L321.659 111.105Z" fill="#F4F7FA"/>
<path d="M445.356 103.322H325.341C323.309 103.322 321.662 104.973 321.662 107.009V113.292L448.698 112.811V106.83C448.698 104.891 447.202 103.322 445.356 103.322Z" fill="#D8DEE8"/>
<path d="M330.209 108.087C330.209 108.99 329.482 109.721 328.58 109.725C327.681 109.728 326.95 108.997 326.95 108.094C326.95 107.191 327.681 106.456 328.58 106.456C329.482 106.453 330.209 107.184 330.209 108.087Z" fill="white"/>
<path d="M341.026 140.834C342.141 138.702 344.234 137.167 346.694 136.848L346.866 126.373C339.876 126.706 333.888 131.124 331.219 137.318L341.026 140.834Z" fill="#D8DEE8"/>
<path d="M348.657 136.855C351.978 137.315 354.566 140.027 354.874 143.433L365.131 143.701C365 134.441 357.884 126.96 348.828 126.386L348.657 136.855Z" fill="white"/>
<path d="M354.796 145.414C354.192 148.912 351.183 151.621 347.552 151.686C346.482 151.707 345.462 151.494 344.543 151.096L339.073 160.136C341.599 161.464 344.488 162.189 347.552 162.12C356.717 161.914 364.205 154.697 365.049 145.675L354.796 145.414Z" fill="white"/>
<path d="M337.392 159.126L342.868 150.083C341.214 148.744 340.157 146.681 340.157 144.353C340.157 143.79 340.219 143.24 340.336 142.712L330.526 139.199C330.011 140.882 329.733 142.667 329.733 144.514C329.736 150.632 332.77 155.971 337.392 159.126Z" fill="white"/>
<path d="M379.189 140.288C380.273 138.19 382.304 136.676 384.692 136.36L384.861 126.04C378.073 126.366 372.261 130.719 369.67 136.82L379.189 140.288Z" fill="white"/>
<path d="M386.604 136.367C389.83 136.824 392.341 139.495 392.643 142.852L402.601 143.117C402.474 133.991 395.563 126.616 386.769 126.053L386.604 136.367Z" fill="#D8DEE8"/>
<path d="M392.564 144.802C391.977 148.25 389.057 150.917 385.53 150.982C384.49 151.003 383.502 150.794 382.61 150.399L377.298 159.305C379.751 160.616 382.555 161.33 385.533 161.262C394.434 161.059 401.705 153.952 402.525 145.06L392.564 144.802Z" fill="white"/>
<path d="M375.661 158.309L380.98 149.4C379.374 148.078 378.348 146.049 378.348 143.755C378.348 143.203 378.41 142.66 378.523 142.138L368.998 138.674C368.5 140.332 368.229 142.094 368.229 143.91C368.229 149.935 371.173 155.199 375.661 158.309Z" fill="white"/>
<path d="M416.254 139.752C417.308 137.682 419.281 136.192 421.601 135.883L421.762 125.71C415.167 126.033 409.522 130.321 407.007 136.333L416.254 139.752Z" fill="white"/>
<path d="M423.457 135.89C426.59 136.34 429.03 138.973 429.325 142.283L439.001 142.547C438.878 133.552 432.162 126.284 423.622 125.724L423.457 135.89Z" fill="white"/>
<path d="M429.249 144.209C428.679 147.608 425.842 150.234 422.417 150.299C421.408 150.316 420.447 150.11 419.579 149.726L414.418 158.501C416.8 159.796 419.524 160.5 422.417 160.431C431.064 160.235 438.126 153.231 438.925 144.466L429.249 144.209Z" fill="white"/>
<path d="M412.83 157.513L417.998 148.734C416.44 147.432 415.441 145.431 415.441 143.168C415.441 142.622 415.5 142.09 415.609 141.575L406.355 138.159C405.871 139.793 405.61 141.527 405.61 143.319C405.61 149.262 408.469 154.45 412.83 157.513Z" fill="#D8DEE8"/>
<path opacity="0.3" d="M573.264 251.997L575.978 246.013C576.997 243.771 576.393 241.076 574.626 239.991L567.595 235.668C569.5 230.268 570.831 224.558 571.503 218.653L579.351 218.103C581.372 217.963 583.009 215.844 583.009 213.376V206.811C583.009 204.343 581.375 202.434 579.351 202.551L571.709 202.987C571.184 197.033 569.97 191.355 568.161 186.057L574.623 181.261C574.828 181.106 575.017 180.931 575.192 180.742L576.019 182.892L586.636 169.831L572.776 168.647C572.169 167.861 571.349 167.387 570.484 167.284C569.712 167.191 568.902 167.394 568.175 167.922L561.793 172.564C558.821 167.792 555.273 163.538 551.255 159.93L551.735 158.924L561.494 160.918L562.733 144.755L547.916 142.307C546.211 141.651 544.286 142.482 543.349 144.415L539.667 152.016C534.935 149.661 538.857 147.182 533.477 146.464L539.105 138.176C539.105 135.594 522.627 133.871 520.4 133.871H514.44C512.186 133.871 510.35 135.993 510.35 138.612V147.487C504.784 148.339 499.417 150.11 494.373 152.675L504.551 145.194C504.551 145.194 486.625 141.795 484.584 143.144L479.128 146.749C477.066 148.112 476.355 151.099 477.549 153.41L481.677 161.399C477.162 165.423 475.24 167.744 471.822 173.059L462.239 170.892C460.122 169.591 457.404 170.473 456.172 172.873L452.888 179.273C451.65 181.686 452.384 184.694 454.528 185.978L462.256 190.613C460.115 196.57 458.667 202.904 458.035 209.482L448.764 210.011C446.269 210.155 444.238 212.504 444.238 215.257V222.584C444.238 225.083 445.909 227.027 448.081 227.239V227.243L458.619 228.929C459.49 234.408 460.952 239.61 462.928 244.447L454.528 250.555C452.387 252.114 451.65 255.21 452.888 257.47L456.172 263.45C457.404 265.692 476.932 267.055 476.932 267.055L470.731 258.355C474.125 262.915 478.071 266.863 482.446 270.09L477.553 280.191C476.359 282.653 477.069 285.547 479.131 286.649L484.587 289.561C484.93 289.746 485.294 289.859 485.661 289.924L485.641 290.027L502.66 292.125L504.324 279.274C506.304 279.58 508.315 279.762 510.357 279.817V290.81C510.357 292.764 511.379 294.312 512.834 294.851L512.759 295.174L529.62 297.279L529.957 276.432C533.041 275.257 536.016 273.805 538.857 272.099L543.353 280.802C543.912 281.884 544.821 282.526 545.827 282.684V282.687L562.122 284.895L556.543 269.527L554.292 270.221L550.579 262.935C554.484 259.056 557.96 254.627 560.914 249.779L568.185 254.139C569.966 255.221 572.241 254.253 573.264 251.997ZM517.429 246.366C501.476 247.788 488.242 233.783 488.242 215.051C488.242 196.319 501.473 180.65 517.429 180.066C532.99 179.496 545.326 193.559 545.326 211.463C545.326 229.365 532.99 244.979 517.429 246.366ZM585.565 210.399L596.604 205.17L585.565 203.831V210.399ZM572.015 255.022L584.642 256.725L586.485 252.416L576.022 246.054L572.015 255.022Z" fill="url(#paint8_linear_0_6086)"/>
<path d="M595.629 204.978L588.029 205.417C587.504 199.481 586.299 193.82 584.501 188.539L590.928 183.753C592.685 182.445 593.286 179.681 592.273 177.577L589.573 171.956C588.554 169.835 586.293 169.162 584.519 170.456L578.17 175.088C575.216 170.333 571.689 166.089 567.695 162.494L571.346 154.838C572.392 152.641 571.771 149.863 569.952 148.62L565.09 145.304C563.251 144.051 560.894 144.82 559.826 147.031L556.165 154.611C551.461 152.267 546.376 150.667 541.009 149.952V141.201C541.009 138.619 539.221 136.528 537.008 136.528L531.082 136.532C528.841 136.532 527.016 138.65 527.016 141.263V150.114C521.481 150.965 516.145 152.733 511.129 155.295L507.172 147.508C506.009 145.218 503.425 144.449 501.397 145.795L495.972 149.393C493.92 150.752 493.217 153.729 494.404 156.033L498.508 163.998C494.016 168.012 490.002 172.743 486.601 178.047L479.179 173.474C477.076 172.176 474.372 173.059 473.15 175.452L469.887 181.834C468.655 184.244 469.386 187.238 471.517 188.519L479.2 193.136C477.069 199.076 475.631 205.393 475.003 211.954L465.787 212.486C463.306 212.631 461.288 214.972 461.288 217.719V225.025C461.288 227.771 463.306 229.856 465.787 229.68L475.25 229.011C476.05 235.338 477.628 241.316 479.869 246.819L471.517 252.914C469.386 254.469 468.655 257.559 469.887 259.808L473.15 265.771C474.375 268.006 477.076 268.538 479.179 266.973L487.624 260.683C490.997 265.225 494.919 269.163 499.273 272.38L494.408 282.454C493.22 284.908 493.924 287.796 495.976 288.894L501.401 291.796C503.429 292.88 506.013 291.778 507.176 289.341L512 279.23C516.763 280.953 521.804 281.932 527.019 282.072V293.035C527.019 295.644 528.841 297.529 531.085 297.241L537.011 296.482C539.225 296.197 541.012 293.876 541.012 291.294V280.452C546.074 279.137 550.884 277.067 555.362 274.368L559.83 283.044C560.897 285.118 563.254 285.585 565.094 284.091L569.956 280.15C571.774 278.677 572.396 275.817 571.349 273.754L567.012 265.222C570.893 261.353 574.348 256.934 577.289 252.096L584.519 256.443C586.293 257.511 588.554 256.546 589.573 254.294L592.273 248.323C593.286 246.085 592.685 243.4 590.928 242.318L583.939 238.01C585.833 232.623 587.157 226.93 587.826 221.039L595.629 220.486C597.64 220.345 599.266 218.234 599.266 215.772V209.225C599.263 206.763 597.64 204.861 595.629 204.978ZM534.054 248.694C518.19 250.119 505.035 236.159 505.035 217.479C505.035 198.798 518.19 183.17 534.054 182.583C549.526 182.009 561.789 196.024 561.789 213.877C561.789 231.73 549.526 247.304 534.054 248.694Z" fill="url(#paint9_linear_0_6086)"/>
<g opacity="0.3">
<path opacity="0.3" d="M292.019 273.345C292.019 267.34 289.861 262.904 285.527 260.024C281.166 257.13 273.256 254.301 261.676 251.516C249.913 248.691 240.47 245.707 233.439 242.579C213.935 233.869 203.994 220.929 203.994 203.927C203.994 195.09 206.671 187.132 212 180.09C217.291 173.1 224.83 167.617 234.544 163.648C244.138 159.731 254.761 157.736 266.373 157.626C277.882 157.519 287.984 159.428 296.741 163.315C305.391 167.157 312.041 172.609 316.742 179.671C321.412 186.689 309.934 198.561 309.934 207.639L292.125 205.081C292.125 198.015 289.861 192.597 285.311 188.807C280.73 184.996 274.252 183.19 265.817 183.413C257.589 183.63 251.131 185.491 246.488 189.006C241.818 192.543 239.471 197.102 239.471 202.664C239.471 207.862 242.22 212.092 247.689 215.34C253.118 218.563 261.041 221.42 271.376 223.892C290.039 228.338 303.349 234.267 311.574 241.707C319.707 249.061 323.742 258.585 323.742 270.338C323.742 283.405 318.811 294.168 308.846 302.717C298.741 311.386 284.916 316.787 267.159 318.867C254.58 320.343 242.933 319.461 232.279 316.172C221.47 312.835 213.122 307.482 207.323 300.097C201.476 292.661 198.539 283.618 198.539 273.022L234.379 270.059L252.5 272.641C252.5 272.641 248.595 295.184 267.162 293.327C275.065 292.537 281.176 290.374 285.534 286.855C289.861 283.353 292.019 278.856 292.019 273.345Z" fill="url(#paint10_linear_0_6086)"/>
<path opacity="0.3" d="M443.901 217.465L373.792 241.213V280.246L435.813 274.145L452.785 276.593L361.71 309.951L344.368 304.561V158.951L435.638 157.979L452.469 160.424L373.792 182.957V217.688L426.991 214.855L443.901 217.465Z" fill="url(#paint11_linear_0_6086)"/>
</g>
<path d="M309.704 275.673C309.704 269.685 307.56 265.263 303.253 262.393C298.92 259.509 291.055 256.69 279.546 253.92C267.856 251.108 258.467 248.138 251.478 245.02C232.091 236.345 222.212 223.449 222.212 206.495C222.212 197.686 224.871 189.751 230.169 182.727C235.429 175.754 242.92 170.285 252.576 166.323C262.111 162.412 272.673 160.417 284.216 160.304C295.653 160.194 305.697 162.093 314.402 165.962C323.001 169.787 329.613 175.222 334.287 182.26C338.929 189.253 341.239 197.25 341.239 206.279L309.814 207.608C309.814 200.566 307.563 195.162 303.037 191.386C298.484 187.585 292.043 185.789 283.66 186.016C275.48 186.236 269.06 188.093 264.448 191.602C259.806 195.131 257.476 199.677 257.476 205.222C257.476 210.403 260.207 214.619 265.642 217.856C271.04 221.07 278.911 223.913 289.188 226.374C307.742 230.8 320.97 236.705 329.146 244.118C337.231 251.448 341.239 260.941 341.239 272.658C341.239 285.684 336.335 296.42 326.429 304.945C316.385 313.59 302.639 318.981 284.992 321.061C272.484 322.537 260.914 321.662 250.318 318.387C239.574 315.063 231.277 309.728 225.509 302.37C219.696 294.958 216.776 285.945 216.776 275.381L252.401 272.411C252.401 290.055 263.422 297.766 284.988 295.593C292.843 294.8 298.916 292.644 303.25 289.135C307.563 285.654 309.704 281.166 309.704 275.673Z" fill="url(#paint12_linear_0_6086)"/>
<path d="M443.884 239.853L390.996 243.599V282.519L452.655 276.411V299.387L361.744 309.978V161.598L452.48 160.589V183.757L390.996 185.521V220.15L443.884 217.303V239.853Z" fill="url(#paint13_linear_0_6086)"/>
<path opacity="0.3" d="M496.782 243.238C490.585 243.077 484.834 243.887 479.399 245.233C479.588 245.728 479.773 246.222 479.972 246.71L471.747 252.711C469.65 254.242 468.93 257.284 470.141 259.502L473.356 265.376C474.561 267.577 477.22 268.102 479.296 266.561L487.614 260.367C490.935 264.841 494.799 268.72 499.085 271.886L494.291 281.805C493.121 284.222 493.817 287.065 495.835 288.146L501.178 291.003C503.175 292.07 505.717 290.985 506.863 288.585L511.616 278.629C516.307 280.325 521.268 281.29 526.408 281.427V292.225C526.408 294.796 528.203 296.65 530.413 296.369L536.246 295.62C538.425 295.342 540.189 293.056 540.189 290.512V279.834C545.171 278.54 549.91 276.5 554.319 273.843L558.722 282.388C559.772 284.428 562.088 284.888 563.896 283.429C536.912 251.671 513.966 243.688 496.782 243.238Z" fill="url(#paint14_linear_0_6086)"/>
<path opacity="0.3" d="M252.576 166.326C242.92 170.288 235.429 175.757 230.169 182.73C224.871 189.751 222.212 197.689 222.212 206.499C222.212 223.449 232.09 236.348 251.478 245.024C258.467 248.141 267.855 251.111 279.546 253.923C291.055 256.694 298.92 259.509 303.253 262.396C307.56 265.267 309.704 269.689 309.704 275.676C309.704 281.173 307.56 285.657 303.253 289.145C298.92 292.654 292.846 294.81 284.992 295.603C263.426 297.776 252.404 290.065 252.404 272.421L216.78 275.391C216.78 285.956 219.7 294.968 225.512 302.38C231.281 309.741 239.578 315.077 250.321 318.397C260.914 321.672 272.488 322.544 284.995 321.071C302.646 318.991 316.389 313.6 326.432 304.955C336.338 296.43 341.242 285.695 341.242 272.669C341.242 260.951 337.234 251.458 329.15 244.128C320.973 236.715 307.745 230.81 289.192 226.384C278.918 223.923 271.043 221.08 265.646 217.866C260.21 214.629 257.479 210.413 257.479 205.232C257.479 199.687 259.809 195.141 264.452 191.612C265.673 190.682 267.028 189.871 268.504 189.174C263.666 183.959 259.205 176.33 256.539 164.843C255.197 165.299 253.876 165.794 252.576 166.326Z" fill="url(#paint15_linear_0_6086)"/>
<path d="M309.244 201.933C309.618 203.69 309.814 205.582 309.814 207.615L341.238 206.286C341.238 204.672 341.163 203.093 341.015 201.545C330.12 200.522 319.404 201.582 309.244 201.933Z" fill="url(#paint16_linear_0_6086)"/>
<path opacity="0.3" d="M372.666 212.82C369.043 210.275 365.395 208.26 361.744 206.671V309.975L452.654 299.383V276.408L390.996 282.515V243.602L396.315 243.225C390.379 234.418 387.52 223.253 372.666 212.82Z" fill="url(#paint17_linear_0_6086)"/>
<path opacity="0.3" d="M623.756 135.158L625.008 132.395C625.478 131.358 625.2 130.115 624.384 129.614L621.138 127.619C622.016 125.126 622.63 122.49 622.943 119.764L626.566 119.509C627.499 119.444 628.254 118.466 628.254 117.329V114.298C628.254 113.158 627.499 112.279 626.566 112.33L623.039 112.533C622.795 109.783 622.236 107.163 621.402 104.719L624.384 102.504C624.48 102.432 624.566 102.353 624.648 102.264L625.029 103.256L629.929 97.2274L623.533 96.6815C623.251 96.3176 622.874 96.0978 622.476 96.0532C622.119 96.012 621.745 96.1047 621.409 96.3485L618.461 98.4908C617.089 96.2901 615.452 94.3228 613.599 92.6577L613.822 92.1942L618.327 93.1143L618.9 85.6538L612.062 84.5242C611.276 84.2221 610.387 84.6066 609.951 85.4993L608.253 89.0081C606.067 87.9232 607.879 86.7764 605.395 86.4468L607.992 82.6222C607.992 81.4308 600.385 80.6343 599.359 80.6343H596.607C595.567 80.6343 594.72 81.6128 594.72 82.8213V86.9172C592.15 87.3086 589.676 88.1292 587.346 89.3137L592.043 85.8598C592.043 85.8598 583.77 84.2907 582.827 84.9122L580.308 86.5773C579.354 87.2056 579.028 88.5858 579.58 89.6501L581.485 93.3375C579.402 95.1949 578.513 96.2661 576.935 98.7174L572.512 97.7184C571.534 97.1175 570.281 97.5261 569.712 98.6316L568.195 101.584C567.622 102.7 567.962 104.087 568.95 104.678L572.519 106.817C571.53 109.567 570.861 112.492 570.57 115.527L566.291 115.771C565.138 115.836 564.201 116.921 564.201 118.191V121.573C564.201 122.726 564.973 123.623 565.975 123.722L570.837 124.501C571.239 127.032 571.915 129.432 572.828 131.663L568.95 134.482C567.962 135.2 567.622 136.631 568.195 137.675L569.712 140.435C570.281 141.469 579.292 142.101 579.292 142.101L576.43 138.084C577.995 140.188 579.817 142.011 581.838 143.501L579.58 148.164C579.028 149.3 579.357 150.636 580.308 151.144L582.827 152.486C582.984 152.572 583.152 152.624 583.321 152.655L583.31 152.703L591.165 153.671L591.933 147.738C592.846 147.879 593.776 147.965 594.716 147.989V153.063C594.716 153.966 595.19 154.68 595.859 154.927L595.825 155.075L603.607 156.047L603.761 146.423C605.185 145.881 606.558 145.211 607.869 144.421L609.945 148.438C610.202 148.936 610.624 149.235 611.087 149.307L618.609 150.327L616.032 143.234L614.992 143.553L613.276 140.188C615.078 138.396 616.684 136.353 618.046 134.115L621.402 136.127C622.232 136.645 623.282 136.199 623.756 135.158ZM597.983 132.559C590.619 133.215 584.511 126.75 584.511 118.105C584.511 109.46 590.619 102.226 597.983 101.958C605.165 101.694 610.857 108.186 610.857 116.45C610.857 124.714 605.165 131.917 597.983 132.559ZM629.431 115.956L634.527 113.542L629.431 112.924V115.956ZM623.179 136.552L629.009 137.339L629.86 135.351L625.032 132.415L623.179 136.552Z" fill="url(#paint18_linear_0_6086)"/>
<path d="M634.077 113.453L630.57 113.656C630.33 110.916 629.771 108.303 628.944 105.866L631.909 103.658C632.718 103.054 632.996 101.78 632.53 100.805L631.284 98.2093C630.814 97.2309 629.771 96.9184 628.951 97.5158L626.02 99.6548C624.658 97.4609 623.028 95.5005 621.186 93.8422L622.87 90.3093C623.354 89.2965 623.066 88.0125 622.229 87.4391L619.985 85.9079C619.137 85.3276 618.049 85.6847 617.555 86.7044L615.864 90.2029C613.692 89.1214 611.345 88.3833 608.867 88.0537V84.0127C608.867 82.8213 608.04 81.8566 607.021 81.8566H604.286C603.25 81.8566 602.409 82.8351 602.409 84.0401V88.1258C599.856 88.5172 597.393 89.3343 595.076 90.5188L593.251 86.9241C592.716 85.8667 591.522 85.513 590.585 86.1345L588.08 87.7962C587.133 88.4245 586.807 89.7978 587.356 90.8621L589.25 94.5392C587.178 96.3931 585.325 98.5767 583.753 101.025L580.325 98.9132C579.354 98.3158 578.105 98.7209 577.542 99.8264L576.036 102.772C575.466 103.885 575.806 105.268 576.787 105.859L580.335 107.991C579.351 110.731 578.688 113.649 578.4 116.677L574.145 116.924C572.999 116.989 572.069 118.071 572.069 119.341V122.713C572.069 123.98 572.999 124.941 574.145 124.862L578.513 124.553C578.88 127.475 579.611 130.232 580.644 132.772L576.791 135.584C575.809 136.302 575.47 137.727 576.039 138.767L577.546 141.52C578.112 142.55 579.357 142.798 580.329 142.077L584.227 139.175C585.784 141.273 587.593 143.089 589.603 144.573L587.356 149.221C586.807 150.354 587.133 151.686 588.08 152.194L590.585 153.533C591.522 154.035 592.712 153.527 593.251 152.4L595.478 147.735C597.677 148.531 600.004 148.981 602.409 149.046V154.107C602.409 155.312 603.25 156.181 604.286 156.05L607.021 155.7C608.044 155.569 608.867 154.498 608.867 153.307V148.301C611.204 147.693 613.424 146.739 615.49 145.493L617.552 149.496C618.046 150.454 619.134 150.667 619.981 149.98L622.225 148.16C623.066 147.481 623.351 146.159 622.867 145.208L620.867 141.27C622.658 139.484 624.253 137.445 625.609 135.213L628.947 137.218C629.767 137.709 630.811 137.266 631.281 136.226L632.526 133.473C632.993 132.439 632.715 131.2 631.905 130.702L628.68 128.714C629.555 126.228 630.166 123.602 630.474 120.883L634.077 120.629C635.007 120.564 635.755 119.588 635.755 118.452V115.431C635.755 114.277 635.007 113.402 634.077 113.453ZM605.655 133.634C598.333 134.29 592.263 127.849 592.263 119.228C592.263 110.607 598.336 103.394 605.655 103.119C612.796 102.855 618.458 109.323 618.458 117.563C618.458 125.803 612.799 132.992 605.655 133.634Z" fill="url(#paint19_linear_0_6086)"/>
<path d="M211.547 229.619L180.589 217.647L175.473 184.835L212.292 158.398C214.543 156.582 211.441 151.408 208.582 150.976C194.647 148.864 179.886 152.531 168.202 162.398C147.164 180.166 144.176 211.707 161.473 233.134C179.079 254.943 211.018 258.362 232.839 240.767C244.371 231.466 252.366 219.865 253.245 206.156C253.43 203.265 248.503 199.818 246.248 201.634L211.547 229.619Z" fill="url(#paint20_linear_0_6086)"/>
<path d="M163.48 215.048L35.3087 311.039C27.0666 317.37 25.646 329.246 32.169 337.342C38.6886 345.434 50.5851 346.57 58.5184 339.862L179.556 235.002L163.48 215.048Z" fill="url(#paint21_linear_0_6086)"/>
<path d="M213.159 231.878L182.201 219.906L177.085 187.094L211.787 159.109C214.038 157.293 213.053 153.671 210.195 153.238C196.26 151.127 181.498 154.794 169.814 164.661C148.777 182.428 145.788 213.97 163.085 235.397C180.692 257.205 212.631 260.625 234.451 243.029C245.984 233.728 252.38 220.418 253.258 206.708C253.443 203.818 250.118 202.08 247.864 203.897L213.159 231.878Z" fill="url(#paint22_linear_0_6086)"/>
<path d="M165.093 217.303L36.9214 313.295C28.6793 319.626 27.2587 331.502 33.7817 339.597C40.3013 347.69 52.1978 348.826 60.1311 342.117L181.169 237.258L165.093 217.303Z" fill="url(#paint23_linear_0_6086)"/>
<path opacity="0.3" d="M163.628 242.397C167.776 242.397 171.139 239.033 171.139 234.882C171.139 230.731 167.776 227.366 163.628 227.366C159.479 227.366 156.116 230.731 156.116 234.882C156.116 239.033 159.479 242.397 163.628 242.397Z" fill="url(#paint24_linear_0_6086)"/>
<path opacity="0.3" d="M158.179 244.986L53.7418 329.212C51.8305 330.753 49.0339 330.451 47.4933 328.539C45.9526 326.626 46.2545 323.828 48.1658 322.287L152.603 238.065L158.179 244.986Z" fill="url(#paint25_linear_0_6086)"/>
<path d="M202.859 363.126L205.765 362.504C205.765 362.504 209.303 361.643 209.481 361.66C209.656 361.673 210.397 363.153 208.534 363.963C206.671 364.774 203.703 365.69 202.862 365.474C202.014 365.254 202.859 363.126 202.859 363.126Z" fill="url(#paint26_linear_0_6086)"/>
<path d="M206.214 358.697L205.106 363.27C205.106 363.27 204.124 363.97 202.923 363.27L203.586 358.714L206.214 358.697Z" fill="url(#paint27_linear_0_6086)"/>
<path d="M158.903 348.854L156.703 352.623L157.029 352.792C157.918 353.248 159.006 353.008 159.616 352.215L161.751 349.444L158.903 348.854Z" fill="url(#paint28_linear_0_6086)"/>
<path d="M180.397 298.8C180.397 298.8 178.335 302.363 178.239 306.758C178.142 311.153 166.857 334.382 162.88 339.968C158.903 345.554 157.661 348.854 157.661 348.854C157.661 348.854 159.792 351.044 161.754 350.938C161.754 350.938 181.714 333.713 191.243 315.032L198.683 298.8H180.397Z" fill="url(#paint29_linear_0_6086)"/>
<g opacity="0.3">
<path opacity="0.3" d="M171.434 335.653C173.973 332.006 172.158 331.103 174.591 325.603C177.785 318.383 181.841 317.851 183.392 312.588C184.109 310.15 183.639 304.416 181.169 298.8H198.679L191.24 315.032C181.714 333.713 161.75 350.938 161.75 350.938C161.119 350.972 160.471 350.766 159.88 350.474C160.543 349.231 160.683 347.034 161.867 344.648C164.334 339.683 168.071 340.483 171.434 335.653Z" fill="url(#paint30_linear_0_6086)"/>
</g>
<path d="M203.253 298.48C206.331 306.267 210.074 318.634 210.105 334.104C210.126 344.699 208.396 353.622 206.56 360.232C205.655 361.001 203.109 360.877 202.415 360.52C200.487 351.02 199.873 343.539 199.684 338.324C199.564 334.98 199.588 331.732 198.191 327.426C197.272 324.59 195.556 321.724 192.166 316.114C187.554 308.481 186.391 307.602 185.396 303.901C184.874 301.972 183.797 297.035 183.797 297.035L203.253 298.48Z" fill="url(#paint31_linear_0_6086)"/>
<path d="M201.325 263.564C200.807 261.905 197.588 261.555 194.393 261.239C182.85 260.103 174.316 264.171 173.541 262.53C173.26 261.936 174.255 261.153 175.837 259.083C178.304 255.856 179.693 252.769 180.496 250.61C179.58 250.411 178.664 250.215 177.748 250.019C166.514 254.761 160.382 262.51 161.679 268.274C162.43 271.608 165.508 273.582 166.966 274.516C175.988 280.301 187.692 274.602 190.773 273.101C195.536 270.784 202.155 266.231 201.325 263.564Z" fill="url(#paint32_linear_0_6086)"/>
<path d="M245.743 237.594C244.535 237.474 243.328 237.351 242.12 237.23C237.484 244.334 232.347 248.952 228.799 251.688C225.539 254.201 219.524 258.692 210.905 260.869C200.01 263.619 195.862 259.89 190.498 262.015C184.353 264.456 178.423 273.87 178.609 303.689C180.911 304.774 186.034 306.806 192.701 306.246C198.38 305.769 202.553 303.637 204.687 302.346C204.742 299.96 205.068 296.31 206.509 292.187C207.271 290.007 209.92 283.199 220.382 274.241C229.784 266.194 232.464 267.563 237.309 262.403C241.145 258.311 245.424 251.097 245.743 237.594Z" fill="url(#paint33_linear_0_6086)"/>
<path d="M242.181 237.193C242.181 237.193 240.836 234.398 240.778 233.807C240.665 232.606 241.121 232.822 241.31 232.283C241.499 231.747 241.368 233.976 242.6 234.219C243.832 234.463 244.089 230.604 244.405 228.421C244.721 226.237 246.471 228.613 246.471 231.047C246.471 233.481 245.301 237.505 245.301 237.505C245.301 237.505 243.008 238.772 242.181 237.193Z" fill="url(#paint34_linear_0_6086)"/>
<path d="M201.191 260.687L200.223 259.069L198.233 258.826L197.969 260.638C197.876 261.267 197.307 261.713 196.675 261.648L195.708 261.548C195.708 261.548 196.387 264.113 199.921 264.518C203.456 264.923 204.499 261.593 204.499 261.593L203.239 261.717C202.416 261.799 201.616 261.397 201.191 260.687Z" fill="url(#paint35_linear_0_6086)"/>
<path d="M198.184 260.048C198.003 259.948 196.513 259.766 196.307 258.967C196.03 257.878 197.004 256.556 197.128 256.343C197.635 255.451 197.766 255.331 198.003 255.18L198.332 254.987C198.332 254.987 198.349 254.98 198.37 254.974C198.579 254.905 199.289 254.898 199.433 254.932C199.89 255.042 200.336 256.924 200.137 259.564C200.154 259.663 200.171 259.766 200.185 259.869C200.223 260.137 198.171 260.144 198.184 260.048Z" fill="url(#paint36_linear_0_6086)"/>
<path d="M197.395 254.215C197.378 255.035 197.745 255.918 197.937 256.062C197.961 256.079 198.102 256.196 198.226 256.392C198.243 256.419 198.256 256.45 198.27 256.488C198.438 257.01 197.604 257.597 197.755 257.83C197.865 258.002 198.428 257.789 198.493 257.937C198.552 258.074 198.081 258.345 198.15 258.51C198.202 258.633 198.49 258.527 198.665 258.719C198.754 258.815 198.723 258.891 198.812 259.179C198.864 259.344 198.932 259.523 198.991 259.622C199.262 260.11 200.061 260.302 200.219 260.113C200.264 260.062 200.226 260.014 200.274 259.835C200.274 259.835 200.319 259.67 200.439 259.478C200.61 259.207 201.015 259.018 201.427 258.736C202.185 258.215 202.401 257.761 202.467 257.607C202.491 257.552 202.504 257.511 202.515 257.48C202.724 256.879 202.745 255.993 202.484 255.44C202.051 254.517 201.015 254.925 200.195 254.002C199.252 252.934 199.859 251.52 199.337 251.351C198.764 251.176 197.426 252.701 197.395 254.215Z" fill="#26264F"/>
<path d="M198.057 257.651C198.263 257.38 198.61 257.648 198.606 258.005C198.6 258.362 198.246 258.726 197.913 258.647C197.58 258.568 197.779 258.015 198.057 257.651Z" fill="url(#paint37_linear_0_6086)"/>
<path opacity="0.3" d="M192.575 302.731C196.819 299.15 192.293 289.567 198.504 283.971C201.146 281.592 202.831 282.539 206.06 279.377C210.102 275.415 208.898 272.518 212.085 269.617C215.877 266.166 219.02 268.961 226.051 266.362C232.251 264.068 235.988 259.612 239.632 255.259C241.049 253.566 242.765 251.286 244.44 248.389C242.82 255.248 239.958 259.571 237.306 262.4C232.461 267.563 229.781 266.19 220.379 274.238C209.917 283.195 207.268 290.007 206.506 292.184C205.065 296.307 204.739 299.953 204.684 302.343C202.549 303.634 198.377 305.769 192.698 306.243C186.027 306.803 180.908 304.77 178.605 303.685C178.599 302.806 178.602 301.951 178.605 301.107C186.947 304.907 190.715 304.296 192.575 302.731Z" fill="url(#paint38_linear_0_6086)"/>
<path d="M157.705 351.538C157.705 351.538 156.71 350.852 155.945 352.496C155.18 354.141 156.068 356.324 156.133 356.709C156.199 357.093 159.232 357.093 159.232 357.093C159.232 357.093 160.035 356.201 159.232 355.943C158.429 355.689 158.745 353.835 158.933 353.454C159.126 353.07 159.17 351.978 157.705 351.538Z" fill="url(#paint39_linear_0_6086)"/>
<path d="M180.191 250.678C180.191 250.678 182.836 248.409 180.191 248.031C177.545 247.654 175.658 244.629 174.9 244.251C174.145 243.874 174.145 247.654 175.655 248.031C177.164 248.409 178.427 250.356 178.427 250.356L180.191 250.678Z" fill="url(#paint40_linear_0_6086)"/>
<path d="M332.831 13.6095V80.4454C332.831 82.6633 334.626 84.4246 336.832 84.38L456.8 81.8909C458.498 81.8565 459.871 80.2566 459.871 78.3202V19.9645L332.831 13.6095Z" fill="white"/>
<path d="M456.8 12.3736L336.832 5.35934C334.626 5.22888 332.831 6.92493 332.831 9.14283V15.9923L459.871 22.0417V16.0644C459.871 14.1245 458.498 12.4731 456.8 12.3736Z" fill="url(#paint41_linear_0_6086)"/>
<path d="M341.976 10.9693C341.976 11.9478 341.19 12.6997 340.219 12.6482C339.248 12.5967 338.455 11.7624 338.455 10.7805C338.455 9.79854 339.245 9.04665 340.219 9.10158C341.19 9.15652 341.976 9.99424 341.976 10.9693Z" fill="white"/>
<path d="M359.97 75.3539L350.156 75.4741V26.1788L359.97 26.5531V75.3539Z" fill="#D8DEE8"/>
<path d="M359.97 75.3539L350.156 75.4741V52.0693L359.97 52.1861V75.3539Z" fill="url(#paint42_linear_0_6086)"/>
<path d="M373.304 75.196L363.758 75.3093V26.6973L373.304 27.0612V75.196Z" fill="#D8DEE8"/>
<path d="M373.304 75.196L363.758 75.3093V63.77H373.304V75.196Z" fill="url(#paint43_linear_0_6086)"/>
<path d="M386.274 75.0414L376.986 75.1513V27.2019L386.274 27.5555V75.0414Z" fill="#D8DEE8"/>
<path d="M386.274 75.0414L376.986 75.1513V69.1739L386.274 69.1224V75.0414Z" fill="url(#paint44_linear_0_6086)"/>
<path d="M398.902 74.8904L389.86 74.9968V27.6929L398.902 28.0362V74.8904Z" fill="#D8DEE8"/>
<path d="M398.902 74.8904L389.86 74.9968V37.9379L398.902 38.1851V74.8904Z" fill="url(#paint45_linear_0_6086)"/>
<path d="M411.2 74.7428L402.395 74.8492V28.1702L411.2 28.5066V74.7428Z" fill="#D8DEE8"/>
<path d="M411.2 74.7427L402.395 74.8491V42.4354L411.2 42.638V74.7427Z" fill="url(#paint46_linear_0_6086)"/>
<path d="M423.176 74.5986L414.601 74.7016V28.6337L423.176 28.9633V74.5986Z" fill="#D8DEE8"/>
<path d="M423.176 74.5986L414.601 74.7016V35.332L423.176 35.5964V74.5986Z" fill="url(#paint47_linear_0_6086)"/>
<path d="M434.846 74.4578L426.487 74.5608V29.0868L434.846 29.4061V74.4578Z" fill="#D8DEE8"/>
<path d="M434.846 74.4578L426.487 74.5608V46.6276L434.846 46.7855V74.4578Z" fill="url(#paint48_linear_0_6086)"/>
<path d="M446.221 74.3238L438.075 74.42V29.5297L446.221 29.8387V74.3238Z" fill="#D8DEE8"/>
<path d="M446.221 74.3239L438.075 74.42V58.8363L446.221 58.8809V74.3239Z" fill="url(#paint49_linear_0_6086)"/>
<path d="M441.269 156.253C442.302 157.296 442.721 158.416 442.347 159.071C442.086 159.525 441.513 159.645 440.885 159.765C439.893 159.954 438.857 159.906 436.733 159.305C434.746 158.745 433.58 158.416 433.58 157.938C433.58 157.492 434.599 157.145 435.494 156.84C436.761 156.411 437.872 156.287 438.634 156.256C439.512 156.253 440.391 156.253 441.269 156.253Z" fill="url(#paint50_linear_0_6086)"/>
<path d="M410.397 139.333C410.864 139.536 411.458 139.89 411.619 140.477C411.869 141.4 410.881 142.358 409.303 143.845C408.115 144.964 406.516 146.471 405.957 146.09C405.617 145.857 405.816 145.019 406.005 144.236C406.232 143.295 406.733 141.843 407.968 140.25C407.968 140.254 407.968 140.253 410.397 139.333Z" fill="url(#paint51_linear_0_6086)"/>
<path d="M439.001 153.956L441.225 156.424C441.455 156.678 441.338 157.083 441.012 157.176C440.525 157.313 439.845 157.423 439.224 157.245C439.087 157.207 438.967 157.125 438.864 157.025L436.644 154.855L439.001 153.956Z" fill="url(#paint52_linear_0_6086)"/>
<path d="M409.165 137.847L410.363 139.574C410.534 139.817 410.452 140.154 410.191 140.298C410.02 140.394 409.814 140.494 409.598 140.573C409.248 140.7 408.86 140.604 408.613 140.329L407.312 138.863L409.165 137.847Z" fill="url(#paint53_linear_0_6086)"/>
<path d="M430.697 101.639C429.558 104.022 428.185 107.459 427.352 111.761C427.002 113.57 425.361 122.678 428.885 133.655C432.166 143.872 438.208 150.375 441.423 153.389C440.967 153.774 440.339 154.227 439.523 154.608C438.215 155.216 437.021 155.363 436.259 155.394C426.442 148.38 421.679 140.435 419.518 136.113C412.226 121.525 414.055 107.205 417.243 101.148C418.289 99.1604 419.473 98.0823 420.811 97.6017C425.104 96.067 430.09 101.021 430.697 101.639Z" fill="url(#paint54_linear_0_6086)"/>
<path opacity="0.3" d="M417.239 101.152C418.286 99.1638 419.47 98.0857 420.808 97.6051C425.107 96.067 430.09 101.021 430.697 101.639C429.575 103.988 428.223 107.366 427.389 111.585C424.387 112.293 420.19 113.968 418.149 117.927C414.841 124.333 419.597 132.01 420.582 133.603C422.754 137.109 424.068 136.782 427.276 141.822C429.699 145.63 429.884 147.288 431.991 149.129C434.468 151.291 437.567 151.927 440.065 152.064C440.555 152.562 441.012 153.005 441.424 153.389C440.967 153.774 440.339 154.227 439.523 154.608C438.215 155.216 437.021 155.363 436.259 155.394C426.442 148.38 421.68 140.435 419.518 136.113C412.223 121.528 414.052 107.208 417.239 101.152Z" fill="url(#paint55_linear_0_6086)"/>
<path d="M425.142 101.107C424.613 102.182 423.697 103.782 422.174 105.368C418.32 109.388 414.717 109.007 410.634 112.32C410.13 112.729 406.516 115.729 405.178 120.107C402.608 128.532 410.078 136.841 410.905 137.737C410.425 138.183 409.697 138.756 408.709 139.237C407.8 139.677 406.966 139.889 406.352 139.999C395.642 130.208 390.406 118.342 393.971 110.631C395.917 106.425 400.518 103.366 403.919 101.107C409.478 97.4128 414.782 95.7373 418.234 94.9167C420.54 96.9802 422.839 99.0436 425.142 101.107Z" fill="url(#paint56_linear_0_6086)"/>
<path d="M418.753 78.7563C418.591 83.4942 419.689 85.9525 418.152 89.8183C417.047 92.5959 415.215 94.5082 413.829 95.6927C414.618 97.2102 416.46 100.242 420.056 102.607C424.401 105.467 428.721 105.66 430.416 105.646C434.008 103.795 439.461 100.307 443.836 94.0997C446.8 89.8904 450.057 85.2692 449.196 79.3777C448.101 71.8931 441.17 67.8968 439.203 66.7603C437.91 66.0153 428.978 60.8619 423.519 64.6489C419.13 67.6976 418.873 75.2131 418.753 78.7563Z" fill="url(#paint57_linear_0_6086)"/>
<path d="M388.9 84.1363C388.756 83.3706 388.21 82.8144 387.898 82.4986C387.534 82.1312 387.462 82.1896 387.225 81.8909C386.628 81.1356 386.772 80.3562 386.546 80.3322C386.347 80.3081 385.997 80.8712 386.021 81.4514C386.048 82.1003 386.522 82.2926 386.433 82.6531C386.306 83.1578 385.184 83.5251 384.189 83.3397C383.036 83.12 382.473 82.1896 382.02 82.4265C381.691 82.5981 381.715 83.2093 381.715 83.2642C381.766 84.4144 383.3 85.6194 384.796 85.7774C385.657 85.8666 385.98 85.5542 387.002 85.8151C387.682 85.9868 387.918 86.2203 388.258 86.0829C388.811 85.846 389.034 84.8676 388.9 84.1363Z" fill="url(#paint58_linear_0_6086)"/>
<path d="M388.735 83.7276C397.958 84.3662 403.466 81.9664 406.787 79.6695C414.319 74.4577 415.798 66.1698 424.534 63.9416C426.126 63.5364 428.902 62.8258 430.416 64.2471C433.562 67.1963 429.853 78.0009 423.316 84.6443C421.872 86.1103 416.673 91.2431 408.091 92.4001C397.094 93.8833 389.202 87.6725 387.839 86.567C387.407 86.0794 387.277 85.3996 387.5 84.8023C387.819 83.9611 388.663 83.7448 388.735 83.7276Z" fill="url(#paint59_linear_0_6086)"/>
<path opacity="0.3" d="M434.372 98.2403C436.97 95.7786 435.741 94.2542 438.936 89.3103C442.192 84.2736 444.536 84.1809 446.035 80.7854C446.811 79.0276 447.291 76.5075 446.433 72.882C447.748 74.657 448.821 76.8062 449.196 79.3778C450.057 85.2693 446.8 89.8905 443.836 94.0997C439.461 100.311 434.008 103.795 430.416 105.646C428.721 105.66 424.401 105.467 420.056 102.607C418.444 101.547 417.188 100.352 416.217 99.2222C417.545 99.9535 419.096 100.592 420.883 100.977C421.748 101.169 429.613 102.752 434.372 98.2403Z" fill="url(#paint60_linear_0_6086)"/>
<path d="M436.754 61.6379L437.505 64.1785C437.745 64.9922 438.233 65.7097 438.898 66.2316L440.892 67.7937C440.892 67.7937 434.812 66.7706 431.902 63.9382L433.679 63.3785C433.865 63.3202 433.991 63.1451 433.991 62.9494V61.0817L436.754 61.6379Z" fill="url(#paint61_linear_0_6086)"/>
<path d="M434.568 62.922C434.279 62.8568 432.179 63.2001 431.582 62.1907C430.773 60.8208 431.579 58.6304 431.661 58.2905C432.001 56.8725 432.128 56.6597 432.392 56.361L432.763 55.9696C432.763 55.9696 432.787 55.9524 432.811 55.9352C433.068 55.7567 434.032 55.4683 434.242 55.458C434.907 55.4237 436.259 57.8098 437.035 61.4903C437.097 61.6208 437.158 61.7547 437.224 61.8886C437.381 62.2353 434.588 63.0559 434.568 62.922Z" fill="url(#paint62_linear_0_6086)"/>
<path d="M431.185 55.2863C431.486 56.409 432.337 57.4664 432.657 57.59C432.698 57.6072 432.935 57.7068 433.182 57.9265C433.216 57.9574 433.247 57.9917 433.281 58.0432C433.717 58.6853 432.811 59.8182 433.113 60.0792C433.333 60.268 434.015 59.7564 434.16 59.9315C434.293 60.0963 433.761 60.6525 433.919 60.8517C434.039 61.0027 434.389 60.7418 434.705 60.9341C434.863 61.0302 434.853 61.1435 435.089 61.5006C435.223 61.7031 435.391 61.9194 435.508 62.0362C436.071 62.5923 437.234 62.5408 437.378 62.2181C437.416 62.1289 437.351 62.0808 437.344 61.8164C437.344 61.8164 437.337 61.5727 437.426 61.2671C437.553 60.8276 438.03 60.4122 438.476 59.8663C439.307 58.8535 439.416 58.1497 439.444 57.9128C439.454 57.8304 439.457 57.7686 439.457 57.7205C439.502 56.821 439.18 55.6056 438.61 54.9567C437.653 53.8683 436.404 54.84 434.925 53.9061C433.216 52.8281 433.484 50.6582 432.705 50.6342C431.843 50.6033 430.622 53.2092 431.185 55.2863Z" fill="#26264F"/>
<path d="M433.446 59.7049C433.621 59.2517 434.197 59.4783 434.331 59.9693C434.465 60.4568 434.125 61.092 433.641 61.1195C433.158 61.1435 433.212 60.3126 433.446 59.7049Z" fill="url(#paint63_linear_0_6086)"/>
<path d="M622.115 207.986L623.145 206.784L622.242 204.913C622.04 204.494 621.594 204.257 621.134 204.322C618.708 204.672 611.183 206.31 606.575 213.445C606.335 213.819 606.352 214.306 606.619 214.66C607.107 215.305 607.731 215.93 607.731 215.93L622.115 207.986Z" fill="url(#paint64_linear_0_6086)"/>
<path d="M623.035 227.305L620.589 231.569C620.589 231.569 620.077 232.87 619.679 233.306C619.957 234.175 621.141 234.964 621.141 234.964L625.561 230.738L623.193 227.342L623.035 227.305Z" fill="url(#paint65_linear_0_6086)"/>
<path d="M616.063 234.521L616.773 231.38C616.773 231.38 617.727 228.757 620.98 228.05C624.233 227.342 624.346 229.121 624.346 229.121L622.253 229.938C622.253 229.938 620.897 230.456 620.115 232.551C618.955 234.714 617.686 235.768 617.686 235.768L616.063 234.521Z" fill="url(#paint66_linear_0_6086)"/>
<path d="M645.874 368.698C645.874 368.698 648.125 374.366 647.535 376.88C649.954 376.831 651.519 376.522 651.519 376.522C651.519 376.522 650.548 373.937 650.356 372.657C650.098 370.926 650.119 368.125 650.119 368.125L645.874 368.698Z" fill="url(#paint67_linear_0_6086)"/>
<path d="M621.048 381.957C621.192 382.132 621.453 382.5 621.474 382.998C621.484 383.269 621.422 383.492 621.347 383.695C620.963 384.704 620.359 384.838 619.71 385.912C619.312 386.568 619.388 386.767 619.024 387.063C618.543 387.454 617.964 387.475 617.459 387.481C616.608 387.492 615.383 387.461 613.842 387.275C614.652 386.232 615.51 385.174 616.423 384.107C616.824 383.636 617.222 383.18 617.624 382.733L620.002 381.93C620.348 381.937 620.698 381.947 621.048 381.957Z" fill="#26264F"/>
<path d="M619.072 370.415C619.072 370.415 617.713 377.508 619.443 379.492C620.915 381.477 618.732 380.062 618.732 380.062L616.124 382.338L614.56 385.044C614.56 385.044 616.001 378.102 615.617 375.348C615.232 372.595 615.04 370.737 615.04 370.737L619.072 370.415Z" fill="url(#paint68_linear_0_6086)"/>
<path d="M613.949 292.839C613.949 292.839 610.301 296.108 610.301 309.56C610.301 323.011 612.031 352.222 612.031 352.222L614.797 373.134C614.797 373.134 617.665 373.237 619.587 372.66C621.316 364.781 624.133 351.453 622.788 340.308C622.212 328.202 627.589 313.02 627.589 313.02C627.589 313.02 632.197 328.395 635.464 336.082C638.73 343.769 644.945 367.85 645.521 369.58C649.34 369.927 650.973 368.918 650.973 368.918C650.973 368.918 648.523 343.003 646.218 333.201C643.912 323.399 644.104 299.764 640.264 293.039C631.621 289.574 613.949 292.839 613.949 292.839Z" fill="url(#paint69_linear_0_6086)"/>
<path d="M613.949 292.839C613.949 292.839 610.298 296.108 610.298 309.56C610.298 323.011 612.027 352.222 612.027 352.222L614.793 373.134C614.793 373.134 617.662 373.237 619.583 372.66C621.313 364.781 624.13 351.453 622.785 340.308C622.208 328.202 627.585 313.02 627.585 313.02C627.585 313.02 632.194 328.395 635.46 336.082C638.727 343.769 644.941 367.85 645.517 369.58C649.337 369.927 650.97 368.918 650.97 368.918C650.97 368.918 648.52 343.003 646.214 333.201C643.908 323.399 644.1 299.764 640.261 293.039C631.621 289.574 613.949 292.839 613.949 292.839Z" fill="url(#paint70_linear_0_6086)"/>
<path opacity="0.25" d="M632.907 317.487C634.046 324.886 636.321 328.872 642.011 333.994C646.561 337.41 643.15 344.809 644.855 350.502C645.425 352.208 647.13 353.918 647.7 355.624C649.817 359.861 647.841 365.042 648.798 369.529C650.291 369.323 650.97 368.907 650.97 368.907C650.97 368.907 648.52 342.993 646.214 333.191C643.908 323.389 644.1 299.754 640.261 293.028C631.617 289.567 613.949 292.836 613.949 292.836C613.949 292.836 610.298 296.104 610.298 309.556C610.298 310.648 610.308 311.843 610.329 313.12C614.117 316.474 621.865 317.219 626.645 313.501C626.933 313.285 627.242 313.151 627.558 313.085C627.571 313.044 627.582 313.013 627.582 313.013C627.582 313.013 627.589 313.041 627.602 313.079C629.781 312.687 632.413 315.513 632.907 317.487Z" fill="url(#paint71_linear_0_6086)"/>
<path d="M646.942 379.032C646.942 379.032 646.379 379.032 646.427 379.757C646.475 380.481 646.173 382.977 649.028 383.094C651.883 383.21 652.322 382.891 652.415 382.891C652.507 382.891 651.667 380.505 651.667 380.505L650.754 379.334L648.297 379.077L646.942 379.032Z" fill="#26264F"/>
<path d="M653.269 381.538C653.207 380.934 652.871 379.987 652.531 379.224C652.027 378.091 652.442 377.666 651.958 376.632C651.794 376.275 651.629 375.935 651.279 375.602C651.197 375.523 650.411 374.795 649.265 374.833C649.038 374.84 648.692 374.857 648.318 375.056C647.875 375.293 647.652 375.647 647.463 375.959C647.165 376.447 647.233 376.598 646.777 377.999C646.739 378.112 646.66 378.356 646.599 378.692C646.551 378.95 646.533 379.166 646.523 379.314C647.271 379.314 650.147 379.43 650.757 379.877C651.365 380.323 651.67 381.072 651.67 381.82C651.67 382.568 652.044 382.919 652.418 382.898C652.748 382.874 653.413 382.253 653.269 381.538Z" fill="#444B8C"/>
<path d="M618.708 378.493C619.35 378.504 619.823 379.015 620.177 380.248C620.533 381.48 622.239 382.572 620.249 382.311C618.258 382.05 616.81 384.872 616.1 385.916C615.39 386.96 613.478 387.887 613.526 386.867C613.575 385.847 614.415 385.37 614.652 384.326C614.889 383.286 617.243 378.473 618.708 378.493Z" fill="#444B8C"/>
<path d="M632.245 246.898C629.019 246.802 620.815 245.906 616.979 249.745C613.053 253.669 617.027 258.379 616.32 264.848C615.966 268.085 615.966 270.341 615.657 274.19C615.627 274.581 615.338 277.74 615.18 278.983C614.086 287.597 608.026 290.968 606.358 298.109C605.713 300.873 605.487 305.227 608.294 311.338C610.051 311.444 612.6 311.791 615.39 312.952C623.797 316.443 624.428 323.176 630.224 324.889C635.851 326.554 637.92 320.992 646.67 319.403C660.303 316.927 669.434 327.852 672.79 324.566C675.644 321.772 672.422 310.548 664.729 304.561C655.537 297.406 646.121 302.518 641.832 295.85C639.162 291.696 640.247 285.712 641.801 277.146C642.614 272.652 643.366 270.544 644.34 267.563C645.363 264.436 646.824 260.889 649.549 255.296C651.038 252.237 647.5 253.95 645.236 251.266C641.76 247.142 635.494 246.995 632.245 246.898Z" fill="url(#paint72_linear_0_6086)"/>
<path d="M622.054 247.413C619.49 248.076 611.883 245.855 611.362 244.464C610.167 241.299 613.057 239.795 618.876 236.042C617.342 235.105 617.267 233.34 615.733 232.403C610.912 234.834 600.004 238.552 602.042 248.165C603.699 255.98 612.954 263.231 620.873 267.989C622.452 264.535 625.224 246.593 622.054 247.413Z" fill="url(#paint73_linear_0_6086)"/>
<path d="M623.165 247.043L625.478 246.332C625.478 246.332 626.082 249.463 633.514 249.855C637.639 249.855 640.305 247.54 640.305 247.54L641.883 248.694C641.883 248.694 638.418 253.023 632.907 252.914C625.794 252.769 623.165 247.043 623.165 247.043Z" fill="url(#paint74_linear_0_6086)"/>
<path d="M641.462 288.874C641.462 288.874 640.82 289.303 639.835 289.087C638.85 288.874 637.649 288.057 636.579 287.713C635.508 287.37 635.422 288.956 637.008 289.77C638.593 290.584 639.962 292.215 640.563 293.457C641.163 294.7 642.663 291.957 642.663 291.957L641.462 288.874Z" fill="url(#paint75_linear_0_6086)"/>
<path d="M642.501 249.298C644.622 249.844 649.093 251.31 652.902 255.358C659.39 262.256 658.711 271.079 658.556 272.676C657.513 283.405 648.767 290.508 642.347 293.08L640.926 288.52C642.587 287.504 648.973 283.339 649.988 276.277C650.215 274.705 650.537 272.456 649.302 270.447C647.092 266.853 642.378 268.065 640.048 265.476C638.363 263.598 637.673 259.444 642.501 249.298Z" fill="url(#paint76_linear_0_6086)"/>
<path d="M630.255 230.91C630.255 230.91 622.62 215.697 623.145 206.784C614.107 206.128 607.738 215.937 607.738 215.937C607.738 215.937 622.397 227.243 626.326 233.402C628.422 233.663 630.255 230.91 630.255 230.91Z" fill="url(#paint77_linear_0_6086)"/>
<path d="M626.672 238.597C627.067 235.541 629.483 233.584 630.008 233.165C632.214 231.411 632.66 231.236 633.419 231.092L634.451 230.934C634.451 230.934 634.506 230.934 634.565 230.937C635.169 230.975 636.984 231.682 637.313 231.916C638.367 232.657 637.591 237.91 634.396 244.44C634.27 244.993 634.146 245.546 634.019 246.098C636.805 246.589 637.495 247.091 637.516 247.492C637.564 248.361 634.513 249.47 631.689 249.542C628.145 249.631 624.384 248.107 624.456 246.967C624.487 246.507 625.152 245.937 627.726 245.381C628.127 244.814 628.529 244.248 628.934 243.685C628.57 243.245 626.381 240.846 626.672 238.597Z" fill="url(#paint78_linear_0_6086)"/>
<path d="M633.137 228.887C631.905 230.092 631.603 232.183 631.967 233.691C632.183 234.594 632.468 234.686 632.427 235.277C632.314 236.935 629.294 237.659 629.462 238.494C629.582 239.091 631.154 238.871 631.425 239.623C631.72 240.444 629.994 241.151 629.253 243.215C629.239 243.252 629.219 243.314 629.191 243.39C629.191 243.39 628.728 244.825 629.335 246.638C634.348 261.596 647.545 270.269 647.545 270.269C651.059 272.58 659.96 278.268 672.677 278.753C679.567 279.014 692.692 279.511 696.597 271.481C699.863 264.765 695.55 254.411 689.027 250.878C683.472 247.87 679.811 251.705 674.492 248.454C667.646 244.269 670.144 235.733 664.5 233.306C658.076 230.542 651.138 240.001 645.367 236.695C641.534 234.497 642.072 228.578 637.643 227.881C637.032 227.785 634.65 227.411 633.137 228.887Z" fill="url(#paint79_linear_0_6086)"/>
<path d="M630.519 235.277C631.408 234.745 632.087 235.891 631.668 236.89C631.25 237.893 629.839 238.518 628.985 237.92C628.127 237.326 629.318 235.994 630.519 235.277Z" fill="url(#paint80_linear_0_6086)"/>
<path d="M628.045 231.727C628.045 231.727 629.019 230.875 630.255 230.91C630.807 230.899 629.26 233.886 626.326 233.399C626.899 232.843 627.472 232.286 628.045 231.727Z" fill="url(#paint81_linear_0_6086)"/>
<path d="M601.414 213.091C601.936 213.091 602.444 212.816 602.715 212.325C610.188 198.836 621.004 200.113 621.11 200.127C621.923 200.237 622.668 199.663 622.778 198.853C622.888 198.039 622.315 197.294 621.505 197.184C620.98 197.112 608.565 195.646 600.121 210.887C599.723 211.604 599.983 212.507 600.701 212.905C600.924 213.033 601.171 213.091 601.414 213.091Z" fill="#EBEFF2"/>
<path d="M248.973 157.602C248.345 158.604 248.444 159.071 248.55 159.284C248.866 159.909 249.834 159.452 252.177 159.981C252.452 160.043 252.977 160.17 253.656 160.084C254.24 160.009 254.94 159.779 254.926 159.621C254.923 159.566 254.823 159.531 254.785 159.518C254.14 159.308 250.149 157.612 250.149 157.612L248.973 157.602Z" fill="url(#paint82_linear_0_6086)"/>
<path d="M248.9 155.247L249.02 157.646C249.02 157.646 249.957 158.47 250.318 157.626C250.575 157.022 250.746 155.332 250.746 155.332L248.9 155.247Z" fill="url(#paint83_linear_0_6086)"/>
<path d="M260.741 157.667L259.465 160.283L258.041 159.899L258.642 157.42L260.741 157.667Z" fill="url(#paint84_linear_0_6086)"/>
<path d="M258.858 161.732C258.244 160.829 257.613 160.839 257.547 160.252C257.496 159.792 257.829 159.27 258.264 159.106C258.879 158.872 259.534 159.404 259.682 159.525C260.69 160.342 260.282 161.413 261.25 161.996C261.445 162.113 261.761 162.251 262.07 162.608C262.2 162.759 262.526 163.136 262.416 163.36C262.289 163.62 261.648 163.541 261.037 163.469C260.303 163.384 259.939 163.339 259.606 163.081C259.153 162.728 259.332 162.429 258.858 161.732Z" fill="url(#paint85_linear_0_6086)"/>
<path d="M247.064 97.9758C246.759 103.493 247.054 108.265 247.548 112.179C248.08 116.389 248.529 117.147 248.567 120.031C248.646 126.307 246.567 127.032 245.613 134.039C244.563 141.778 246.117 148.126 246.731 150.55C247.27 152.668 247.877 154.395 248.337 155.597C249 156.277 250.108 156.129 251.275 155.992C252.28 148.977 253.357 142.385 254.366 135.371C256.61 124.879 258.851 114.387 261.095 103.898C256.418 101.921 251.741 99.95 247.064 97.9758Z" fill="url(#paint86_linear_0_6086)"/>
<path opacity="0.3" d="M251.278 155.988C252.283 148.974 253.361 142.382 254.37 135.368C256.614 124.876 258.854 114.384 261.099 103.895C256.422 101.921 251.745 99.9465 247.068 97.9758C247.047 98.3398 247.037 98.6934 247.023 99.0539C253.282 105.474 254.219 110.226 253.889 113.388C253.491 117.223 251.233 118.953 251.182 124.556C251.144 128.563 252.283 129.363 251.985 132.958C251.601 137.586 249.401 140.023 248.214 142.616C247.064 145.122 246.429 148.754 247.802 154.11C247.994 154.666 248.179 155.168 248.344 155.597C249 156.277 250.108 156.129 251.278 155.988Z" fill="url(#paint87_linear_0_6086)"/>
<path d="M255.135 103.984C258.175 110.25 259.75 115.111 260.573 118.102C261.078 119.925 261.514 121.82 261.452 124.251C261.373 127.227 260.584 129.614 259.946 131.131C259.036 133.068 258.172 135.34 257.533 137.936C255.461 146.358 256.868 153.664 258.089 157.901C258.916 158.288 259.747 158.676 260.573 159.064C262.958 153.808 265.964 146.32 268.452 136.985C269.811 131.886 270.857 127.887 271.29 122.73C271.746 117.292 271.688 108.626 268.092 97.9758C263.771 99.9809 259.455 101.982 255.135 103.984Z" fill="url(#paint88_linear_0_6086)"/>
<path d="M261.009 57.0715C266.366 58.4551 270.422 59.7701 272.034 62.7708C273.736 65.9397 270.446 67.9482 269.056 74.4749C266.929 84.4692 272.422 88.7265 269.907 98.762C269.059 102.144 267.677 104.698 266.743 106.205C264.87 107.493 261.915 109.216 258.021 110.229C252.352 111.702 249.727 110.353 242.278 110.164C230.096 109.852 227.986 113.22 222.688 110.6C217.332 107.953 213.815 101.711 215.197 99.2839C216.024 97.8316 218.166 98.9577 221.501 97.3647C225.8 95.3116 225.382 91.9881 228.94 89.4646C234.053 85.8357 238.311 90.2818 242.689 87.1231C247.116 83.9267 248.324 75.3607 246.992 70.0906C246.121 66.647 246.402 63.0077 245.836 59.5023C245.788 59.2105 245.771 58.7504 245.99 58.2492C246.831 56.3299 250.472 56.251 253.224 56.2166C257.417 56.1651 260.57 56.9548 261.009 57.0715Z" fill="url(#paint89_linear_0_6086)"/>
<path opacity="0.3" d="M223.642 106.82C225.413 105.842 224.768 102.59 227.393 101.114C229.829 99.7406 231.459 101.934 234.949 101.176C239.423 100.201 239.543 95.9777 243.832 94.9821C246.917 94.2679 247.665 96.2627 251.995 96.7056C256.316 97.1485 262.139 95.8301 266.112 91.5385C267.8 89.7154 268.826 87.7035 269.451 85.8186C270.298 89.657 271.256 93.3787 269.907 98.7621C269.06 102.144 267.677 104.698 266.743 106.205C264.87 107.493 261.916 109.216 258.021 110.229C252.352 111.702 249.727 110.353 242.278 110.164C230.097 109.852 227.986 113.22 222.688 110.6C219.267 108.907 216.601 105.752 215.479 103.057C219.984 106.944 222.359 107.534 223.642 106.82Z" fill="url(#paint90_linear_0_6086)"/>
<path d="M264.928 47.9219C264.928 47.9219 266.191 50.8573 266.122 52.8418C266.054 54.8228 263.84 54.4966 263.84 54.4966L263.82 55.7498C263.803 56.8175 264.417 57.796 265.384 58.2458L266.235 58.6406C266.235 58.6406 260.402 59.3925 257.455 56.9205L258.364 56.9068C259.651 56.8862 260.749 55.9626 260.985 54.6958L261.085 54.167C261.085 54.167 260.601 47.9322 264.928 47.9219Z" fill="url(#paint91_linear_0_6086)"/>
<path d="M270.775 79.9785L279.498 64.9201C279.604 64.7347 279.82 64.642 280.03 64.6901L292.235 67.5431C292.561 67.6186 292.716 67.9929 292.537 68.2778L282.415 84.4727C282.291 84.6684 282.051 84.7508 281.835 84.6718L271.108 80.7956L270.775 79.9785Z" fill="url(#paint92_linear_0_6086)"/>
<path d="M272.923 78.2688L279.989 66.0772C280.074 65.9261 280.249 65.8506 280.421 65.8918L290.303 68.2024C290.567 68.2642 290.691 68.5663 290.547 68.7963L282.349 81.9115C282.25 82.0694 282.054 82.1381 281.879 82.0729L273.194 78.9348L272.923 78.2688Z" fill="url(#paint93_linear_0_6086)"/>
<path d="M282.072 66.2179L282.631 65.2394C282.71 65.102 282.868 65.0334 283.019 65.0677L288.104 66.211C288.341 66.2625 288.457 66.5303 288.334 66.7397L287.709 67.804C287.63 67.9414 287.469 68.0066 287.315 67.9688L282.295 66.7397C282.065 66.6882 281.951 66.4239 282.072 66.2179Z" fill="url(#paint94_linear_0_6086)"/>
<path d="M288.728 70.41C288.722 70.41 288.715 70.4065 288.704 70.4065L279.755 68.2916C279.646 68.2642 279.577 68.1543 279.601 68.0444C279.628 67.9346 279.742 67.8659 279.848 67.8899L288.797 70.0048C288.907 70.0323 288.975 70.1422 288.951 70.252C288.927 70.355 288.831 70.4237 288.728 70.41Z" fill="white"/>
<path d="M288.169 71.2785C288.162 71.2785 288.152 71.2751 288.145 71.2751L279.251 69.0778C279.141 69.0503 279.072 68.9405 279.1 68.8272C279.127 68.7173 279.237 68.6486 279.35 68.6761L288.244 70.8734C288.354 70.9009 288.423 71.0107 288.395 71.124C288.368 71.2236 288.268 71.2888 288.169 71.2785Z" fill="white"/>
<path d="M283.475 72.2432C283.465 72.2432 283.454 72.2398 283.444 72.2364L278.609 70.9008C278.5 70.8699 278.434 70.7566 278.465 70.6467C278.496 70.5369 278.609 70.4717 278.719 70.5026L283.554 71.8381C283.664 71.869 283.729 71.9823 283.698 72.0922C283.671 72.1952 283.574 72.257 283.475 72.2432Z" fill="white"/>
<path d="M284.895 80.5107C284.895 80.5107 287.053 79.3502 287.39 78.406C287.726 77.4653 287.856 75.6388 287.856 75.6388L286.415 78.0799C286.415 78.0799 285.866 77.8567 285.708 76.9881C285.55 76.1195 285.056 76.8473 285.159 77.5031C285.259 78.1588 284.895 80.5107 284.895 80.5107Z" fill="url(#paint95_linear_0_6086)"/>
<path d="M271.17 61.7168C272.165 62.4756 273.654 63.7836 274.879 65.7715C278.369 71.4227 276.214 76.8267 279.347 79.1476C280.242 79.8103 281.872 80.4454 285.008 79.6901L286.103 80.4283C286.103 80.4283 286.765 87.7858 277.988 87.1404C269.21 86.4949 265.988 75.1547 265.988 75.1547L271.17 61.7168Z" fill="url(#paint96_linear_0_6086)"/>
<path d="M263.803 50.6445C263.508 50.5964 263.295 50.1981 263.082 50.2943C262.859 50.3938 262.838 50.9432 262.989 51.3448C263.116 51.6744 263.346 51.8701 263.48 51.9663C263.226 52.265 262.893 52.7319 262.718 53.3671C262.331 54.7713 262.993 55.9798 263.254 56.6768C264.424 59.8182 261.819 64.4188 259.194 66.6333C257.06 68.4324 256.209 67.5672 254.898 69.0744C252.349 72.0064 255.228 75.6972 253.694 79.8C251.364 86.0383 241.128 87.1026 240.703 87.1404C240.535 87.1575 240.425 87.1644 240.25 87.1781C235.669 87.5215 228.727 88.0433 224.208 83.9302C220.828 80.854 219.572 75.8792 220.197 71.6425C220.362 70.5267 221.055 66.3037 224.805 63.121C225.399 62.6164 228.926 59.6328 233.325 59.9555C235.655 60.1272 236.057 60.989 237.882 60.6285C240.38 60.1341 242.065 58.0398 243.112 56.742C245.037 54.3524 244.385 53.755 245.719 52.6117C248.337 50.3732 251.014 52.5225 253.776 50.5861C256.497 48.6737 255.2 45.6696 257.808 44.0354C260.498 42.3496 265.292 43.4139 266.136 45.7554C266.863 47.7639 264.705 50.7955 263.803 50.6445Z" fill="url(#paint97_linear_0_6086)"/>
<defs>
<linearGradient id="paint0_linear_0_6086" x1="35.9758" y1="10.9095" x2="294.051" y2="316.083" gradientUnits="userSpaceOnUse">
<stop offset="0.00359712" stop-color="#E38DDD"/>
<stop offset="1" stop-color="#9571F6"/>
</linearGradient>
<linearGradient id="paint1_linear_0_6086" x1="124.803" y1="-50.3585" x2="368.771" y2="238.134" gradientUnits="userSpaceOnUse">
<stop offset="0.00359712" stop-color="#E38DDD"/>
<stop offset="1" stop-color="#9571F6"/>
</linearGradient>
<linearGradient id="paint2_linear_0_6086" x1="-17.2283" y1="59.3742" x2="234.731" y2="357.316" gradientUnits="userSpaceOnUse">
<stop offset="0.00359712" stop-color="#E38DDD"/>
<stop offset="1" stop-color="#9571F6"/>
</linearGradient>
<linearGradient id="paint3_linear_0_6086" x1="449.03" y1="67.1923" x2="594.948" y2="196.029" gradientUnits="userSpaceOnUse">
<stop stop-color="#FF9085"/>
<stop offset="1" stop-color="#FB6FBB"/>
</linearGradient>
<linearGradient id="paint4_linear_0_6086" x1="493.199" y1="51.3515" x2="561.34" y2="79.6161" gradientUnits="userSpaceOnUse">
<stop stop-color="#FF9085"/>
<stop offset="1" stop-color="#FB6FBB"/>
</linearGradient>
<linearGradient id="paint5_linear_0_6086" x1="501.318" y1="36.488" x2="566.023" y2="63.3272" gradientUnits="userSpaceOnUse">
<stop stop-color="#FF9085"/>
<stop offset="1" stop-color="#FB6FBB"/>
</linearGradient>
<linearGradient id="paint6_linear_0_6086" x1="524.398" y1="71.4115" x2="575.391" y2="92.5631" gradientUnits="userSpaceOnUse">
<stop offset="0.00359712" stop-color="#E38DDD"/>
<stop offset="1" stop-color="#9571F6"/>
</linearGradient>
<linearGradient id="paint7_linear_0_6086" x1="530.03" y1="59.4365" x2="579.471" y2="79.9444" gradientUnits="userSpaceOnUse">
<stop offset="0.00359712" stop-color="#E38DDD"/>
<stop offset="1" stop-color="#9571F6"/>
</linearGradient>
<linearGradient id="paint8_linear_0_6086" x1="272.901" y1="-13.4871" x2="782.956" y2="457.465" gradientUnits="userSpaceOnUse">
<stop stop-color="#FFC444"/>
<stop offset="0.9964" stop-color="#F36F56"/>
</linearGradient>
<linearGradient id="paint9_linear_0_6086" x1="537.718" y1="333.795" x2="521.729" y2="83.439" gradientUnits="userSpaceOnUse">
<stop stop-color="#FFC444"/>
<stop offset="0.9964" stop-color="#F36F56"/>
</linearGradient>
<linearGradient id="paint10_linear_0_6086" x1="163.186" y1="148.054" x2="681.866" y2="626.97" gradientUnits="userSpaceOnUse">
<stop stop-color="#AA80F9"/>
<stop offset="0.9964" stop-color="#6165D7"/>
</linearGradient>
<linearGradient id="paint11_linear_0_6086" x1="242.749" y1="88.5958" x2="697.426" y2="508.415" gradientUnits="userSpaceOnUse">
<stop stop-color="#AA80F9"/>
<stop offset="0.9964" stop-color="#6165D7"/>
</linearGradient>
<linearGradient id="paint12_linear_0_6086" x1="181.504" y1="150.907" x2="697.818" y2="627.639" gradientUnits="userSpaceOnUse">
<stop stop-color="#AA80F9"/>
<stop offset="0.9964" stop-color="#6165D7"/>
</linearGradient>
<linearGradient id="paint13_linear_0_6086" x1="255.601" y1="95.2281" x2="712.577" y2="517.17" gradientUnits="userSpaceOnUse">
<stop stop-color="#AA80F9"/>
<stop offset="0.9964" stop-color="#6165D7"/>
</linearGradient>
<linearGradient id="paint14_linear_0_6086" x1="365.073" y1="132.615" x2="767.259" y2="503.968" gradientUnits="userSpaceOnUse">
<stop stop-color="#FFC444"/>
<stop offset="0.9964" stop-color="#F36F56"/>
</linearGradient>
<linearGradient id="paint15_linear_0_6086" x1="122.596" y1="124.49" x2="562.194" y2="530.386" gradientUnits="userSpaceOnUse">
<stop stop-color="#AA80F9"/>
<stop offset="0.9964" stop-color="#6165D7"/>
</linearGradient>
<linearGradient id="paint16_linear_0_6086" x1="176.093" y1="66.5505" x2="615.692" y2="472.446" gradientUnits="userSpaceOnUse">
<stop stop-color="#AA80F9"/>
<stop offset="0.9964" stop-color="#6165D7"/>
</linearGradient>
<linearGradient id="paint17_linear_0_6086" x1="226.792" y1="126.43" x2="683.768" y2="548.372" gradientUnits="userSpaceOnUse">
<stop stop-color="#AA80F9"/>
<stop offset="0.9964" stop-color="#6165D7"/>
</linearGradient>
<linearGradient id="paint18_linear_0_6086" x1="485.115" y1="12.6174" x2="720.544" y2="229.997" gradientUnits="userSpaceOnUse">
<stop stop-color="#FF9085"/>
<stop offset="1" stop-color="#FB6FBB"/>
</linearGradient>
<linearGradient id="paint19_linear_0_6086" x1="600.089" y1="89.2192" x2="615.978" y2="213.086" gradientUnits="userSpaceOnUse">
<stop stop-color="#FF9085"/>
<stop offset="1" stop-color="#FB6FBB"/>
</linearGradient>
<linearGradient id="paint20_linear_0_6086" x1="185.996" y1="174.191" x2="274.816" y2="369.343" gradientUnits="userSpaceOnUse">
<stop stop-color="#40447E"/>
<stop offset="0.9964" stop-color="#3C3B6B"/>
</linearGradient>
<linearGradient id="paint21_linear_0_6086" x1="77.1517" y1="223.729" x2="165.981" y2="418.9" gradientUnits="userSpaceOnUse">
<stop stop-color="#40447E"/>
<stop offset="0.9964" stop-color="#3C3B6B"/>
</linearGradient>
<linearGradient id="paint22_linear_0_6086" x1="187.297" y1="176.591" x2="276.118" y2="371.743" gradientUnits="userSpaceOnUse">
<stop stop-color="#FF9085"/>
<stop offset="1" stop-color="#FB6FBB"/>
</linearGradient>
<linearGradient id="paint23_linear_0_6086" x1="78.764" y1="225.987" x2="167.593" y2="421.158" gradientUnits="userSpaceOnUse">
<stop stop-color="#FF9085"/>
<stop offset="1" stop-color="#FB6FBB"/>
</linearGradient>
<linearGradient id="paint24_linear_0_6086" x1="187.264" y1="267.268" x2="163.635" y2="234.929" gradientUnits="userSpaceOnUse">
<stop stop-color="#FF9085"/>
<stop offset="0.033" stop-color="#FF8F87"/>
<stop offset="1" stop-color="#FB6FBB"/>
</linearGradient>
<linearGradient id="paint25_linear_0_6086" x1="125.488" y1="317.802" x2="101.473" y2="284.936" gradientUnits="userSpaceOnUse">
<stop stop-color="#FF9085"/>
<stop offset="0.033" stop-color="#FF8F87"/>
<stop offset="1" stop-color="#FB6FBB"/>
</linearGradient>
<linearGradient id="paint26_linear_0_6086" x1="209.771" y1="363.581" x2="202.484" y2="363.581" gradientUnits="userSpaceOnUse">
<stop stop-color="#40447E"/>
<stop offset="0.9964" stop-color="#3C3B6B"/>
</linearGradient>
<linearGradient id="paint27_linear_0_6086" x1="205.506" y1="345.512" x2="204.485" y2="362.356" gradientUnits="userSpaceOnUse">
<stop stop-color="#311944"/>
<stop offset="1" stop-color="#A03976"/>
</linearGradient>
<linearGradient id="paint28_linear_0_6086" x1="159.733" y1="342.736" x2="158.711" y2="359.58" gradientUnits="userSpaceOnUse">
<stop stop-color="#311944"/>
<stop offset="1" stop-color="#A03976"/>
</linearGradient>
<linearGradient id="paint29_linear_0_6086" x1="164.846" y1="343.414" x2="181.695" y2="314.2" gradientUnits="userSpaceOnUse">
<stop stop-color="#40447E"/>
<stop offset="0.9964" stop-color="#3C3B6B"/>
</linearGradient>
<linearGradient id="paint30_linear_0_6086" x1="165.135" y1="343.581" x2="181.984" y2="314.367" gradientUnits="userSpaceOnUse">
<stop stop-color="#40447E"/>
<stop offset="0.9964" stop-color="#3C3B6B"/>
</linearGradient>
<linearGradient id="paint31_linear_0_6086" x1="188.963" y1="327.623" x2="217.404" y2="331.574" gradientUnits="userSpaceOnUse">
<stop stop-color="#40447E"/>
<stop offset="0.9964" stop-color="#3C3B6B"/>
</linearGradient>
<linearGradient id="paint32_linear_0_6086" x1="179.014" y1="260.841" x2="239.478" y2="388.478" gradientUnits="userSpaceOnUse">
<stop stop-color="#FFC444"/>
<stop offset="0.9964" stop-color="#F36F56"/>
</linearGradient>
<linearGradient id="paint33_linear_0_6086" x1="202.315" y1="249.803" x2="262.779" y2="377.439" gradientUnits="userSpaceOnUse">
<stop stop-color="#FFC444"/>
<stop offset="0.9964" stop-color="#F36F56"/>
</linearGradient>
<linearGradient id="paint34_linear_0_6086" x1="225.181" y1="159.317" x2="255.822" y2="280.089" gradientUnits="userSpaceOnUse">
<stop stop-color="#311944"/>
<stop offset="1" stop-color="#A03976"/>
</linearGradient>
<linearGradient id="paint35_linear_0_6086" x1="202.626" y1="269.706" x2="197.927" y2="254.573" gradientUnits="userSpaceOnUse">
<stop stop-color="#311944"/>
<stop offset="1" stop-color="#A03976"/>
</linearGradient>
<linearGradient id="paint36_linear_0_6086" x1="200.557" y1="266.507" x2="196.986" y2="253.181" gradientUnits="userSpaceOnUse">
<stop stop-color="#311944"/>
<stop offset="1" stop-color="#A03976"/>
</linearGradient>
<linearGradient id="paint37_linear_0_6086" x1="200.411" y1="266.546" x2="196.84" y2="253.221" gradientUnits="userSpaceOnUse">
<stop stop-color="#311944"/>
<stop offset="1" stop-color="#A03976"/>
</linearGradient>
<linearGradient id="paint38_linear_0_6086" x1="199.698" y1="251.043" x2="260.162" y2="378.679" gradientUnits="userSpaceOnUse">
<stop stop-color="#FFC444"/>
<stop offset="0.9964" stop-color="#F36F56"/>
</linearGradient>
<linearGradient id="paint39_linear_0_6086" x1="159.587" y1="354.244" x2="155.635" y2="354.244" gradientUnits="userSpaceOnUse">
<stop stop-color="#40447E"/>
<stop offset="0.9964" stop-color="#3C3B6B"/>
</linearGradient>
<linearGradient id="paint40_linear_0_6086" x1="192.633" y1="188.791" x2="167.665" y2="287.2" gradientUnits="userSpaceOnUse">
<stop stop-color="#311944"/>
<stop offset="1" stop-color="#A03976"/>
</linearGradient>
<linearGradient id="paint41_linear_0_6086" x1="405.786" y1="-0.390016" x2="354.298" y2="83.7341" gradientUnits="userSpaceOnUse">
<stop stop-color="#FF9085"/>
<stop offset="1" stop-color="#FB6FBB"/>
</linearGradient>
<linearGradient id="paint42_linear_0_6086" x1="360.357" y1="47.184" x2="347.723" y2="86.5879" gradientUnits="userSpaceOnUse">
<stop stop-color="#FF9085"/>
<stop offset="1" stop-color="#FB6FBB"/>
</linearGradient>
<linearGradient id="paint43_linear_0_6086" x1="371.457" y1="60.3462" x2="364.478" y2="82.1116" gradientUnits="userSpaceOnUse">
<stop stop-color="#FF9085"/>
<stop offset="1" stop-color="#FB6FBB"/>
</linearGradient>
<linearGradient id="paint44_linear_0_6086" x1="383.439" y1="66.4664" x2="379.134" y2="79.893" gradientUnits="userSpaceOnUse">
<stop stop-color="#FF9085"/>
<stop offset="1" stop-color="#FB6FBB"/>
</linearGradient>
<linearGradient id="paint45_linear_0_6086" x1="402.334" y1="31.5868" x2="383.355" y2="90.7808" gradientUnits="userSpaceOnUse">
<stop stop-color="#FF9085"/>
<stop offset="1" stop-color="#FB6FBB"/>
</linearGradient>
<linearGradient id="paint46_linear_0_6086" x1="413.813" y1="36.6829" x2="397.069" y2="88.9048" gradientUnits="userSpaceOnUse">
<stop stop-color="#FF9085"/>
<stop offset="1" stop-color="#FB6FBB"/>
</linearGradient>
<linearGradient id="paint47_linear_0_6086" x1="427.269" y1="28.7956" x2="407.266" y2="91.1841" gradientUnits="userSpaceOnUse">
<stop stop-color="#FF9085"/>
<stop offset="1" stop-color="#FB6FBB"/>
</linearGradient>
<linearGradient id="paint48_linear_0_6086" x1="436.767" y1="41.498" x2="422.212" y2="86.8917" gradientUnits="userSpaceOnUse">
<stop stop-color="#FF9085"/>
<stop offset="1" stop-color="#FB6FBB"/>
</linearGradient>
<linearGradient id="paint49_linear_0_6086" x1="445.785" y1="55.2205" x2="437.109" y2="82.2798" gradientUnits="userSpaceOnUse">
<stop stop-color="#FF9085"/>
<stop offset="1" stop-color="#FB6FBB"/>
</linearGradient>
<linearGradient id="paint50_linear_0_6086" x1="442.481" y1="158.058" x2="433.578" y2="158.058" gradientUnits="userSpaceOnUse">
<stop stop-color="#40447E"/>
<stop offset="0.9964" stop-color="#3C3B6B"/>
</linearGradient>
<linearGradient id="paint51_linear_0_6086" x1="411.657" y1="142.744" x2="405.771" y2="142.744" gradientUnits="userSpaceOnUse">
<stop stop-color="#40447E"/>
<stop offset="0.9964" stop-color="#3C3B6B"/>
</linearGradient>
<linearGradient id="paint52_linear_0_6086" x1="438.135" y1="157.626" x2="434.902" y2="164.319" gradientUnits="userSpaceOnUse">
<stop stop-color="#311944"/>
<stop offset="1" stop-color="#A03976"/>
</linearGradient>
<linearGradient id="paint53_linear_0_6086" x1="407.042" y1="131.126" x2="411.986" y2="153.141" gradientUnits="userSpaceOnUse">
<stop stop-color="#311944"/>
<stop offset="1" stop-color="#A03976"/>
</linearGradient>
<linearGradient id="paint54_linear_0_6086" x1="408.313" y1="147.969" x2="431.145" y2="125.15" gradientUnits="userSpaceOnUse">
<stop stop-color="#AB316D"/>
<stop offset="1" stop-color="#792D3D"/>
</linearGradient>
<linearGradient id="paint55_linear_0_6086" x1="408.313" y1="147.969" x2="431.145" y2="125.15" gradientUnits="userSpaceOnUse">
<stop stop-color="#AB316D"/>
<stop offset="1" stop-color="#792D3D"/>
</linearGradient>
<linearGradient id="paint56_linear_0_6086" x1="393.201" y1="132.849" x2="416.034" y2="110.03" gradientUnits="userSpaceOnUse">
<stop stop-color="#AB316D"/>
<stop offset="1" stop-color="#792D3D"/>
</linearGradient>
<linearGradient id="paint57_linear_0_6086" x1="423.14" y1="61.3894" x2="435.78" y2="100.352" gradientUnits="userSpaceOnUse">
<stop stop-color="#FFC444"/>
<stop offset="0.9964" stop-color="#F36F56"/>
</linearGradient>
<linearGradient id="paint58_linear_0_6086" x1="381.936" y1="87.4751" x2="385.85" y2="83.5633" gradientUnits="userSpaceOnUse">
<stop stop-color="#311944"/>
<stop offset="1" stop-color="#A03976"/>
</linearGradient>
<linearGradient id="paint59_linear_0_6086" x1="406.461" y1="66.8001" x2="419.101" y2="105.763" gradientUnits="userSpaceOnUse">
<stop stop-color="#FFC444"/>
<stop offset="0.9964" stop-color="#F36F56"/>
</linearGradient>
<linearGradient id="paint60_linear_0_6086" x1="423.703" y1="61.2068" x2="436.343" y2="100.17" gradientUnits="userSpaceOnUse">
<stop stop-color="#FFC444"/>
<stop offset="0.9964" stop-color="#F36F56"/>
</linearGradient>
<linearGradient id="paint61_linear_0_6086" x1="439.642" y1="71.2161" x2="429.492" y2="54.4775" gradientUnits="userSpaceOnUse">
<stop stop-color="#311944"/>
<stop offset="1" stop-color="#A03976"/>
</linearGradient>
<linearGradient id="paint62_linear_0_6086" x1="440.36" y1="70.7805" x2="430.21" y2="54.0419" gradientUnits="userSpaceOnUse">
<stop stop-color="#311944"/>
<stop offset="1" stop-color="#A03976"/>
</linearGradient>
<linearGradient id="paint63_linear_0_6086" x1="440.177" y1="70.8919" x2="430.027" y2="54.1528" gradientUnits="userSpaceOnUse">
<stop stop-color="#311944"/>
<stop offset="1" stop-color="#A03976"/>
</linearGradient>
<linearGradient id="paint64_linear_0_6086" x1="611.879" y1="204.154" x2="618.416" y2="218.493" gradientUnits="userSpaceOnUse">
<stop stop-color="#AB316D"/>
<stop offset="1" stop-color="#792D3D"/>
</linearGradient>
<linearGradient id="paint65_linear_0_6086" x1="619.532" y1="225.256" x2="626.433" y2="240.393" gradientUnits="userSpaceOnUse">
<stop stop-color="#AB316D"/>
<stop offset="1" stop-color="#792D3D"/>
</linearGradient>
<linearGradient id="paint66_linear_0_6086" x1="621.872" y1="227.844" x2="617.842" y2="235.135" gradientUnits="userSpaceOnUse">
<stop stop-color="#FFC444"/>
<stop offset="0.9964" stop-color="#F36F56"/>
</linearGradient>
<linearGradient id="paint67_linear_0_6086" x1="648.695" y1="378.21" x2="648.695" y2="367.889" gradientUnits="userSpaceOnUse">
<stop stop-color="#FFC444"/>
<stop offset="0.9964" stop-color="#F36F56"/>
</linearGradient>
<linearGradient id="paint68_linear_0_6086" x1="617.256" y1="381.151" x2="617.256" y2="368.713" gradientUnits="userSpaceOnUse">
<stop stop-color="#FFC444"/>
<stop offset="0.9964" stop-color="#F36F56"/>
</linearGradient>
<linearGradient id="paint69_linear_0_6086" x1="610.301" y1="332.292" x2="650.971" y2="332.292" gradientUnits="userSpaceOnUse">
<stop stop-color="#311944"/>
<stop offset="1" stop-color="#893976"/>
</linearGradient>
<linearGradient id="paint70_linear_0_6086" x1="619.393" y1="381.385" x2="646.84" y2="270.633" gradientUnits="userSpaceOnUse">
<stop stop-color="#444B8C"/>
<stop offset="0.9964" stop-color="#26264F"/>
</linearGradient>
<linearGradient id="paint71_linear_0_6086" x1="620.544" y1="295.086" x2="649.868" y2="344.313" gradientUnits="userSpaceOnUse">
<stop stop-color="#311944"/>
<stop offset="1" stop-color="#893976"/>
</linearGradient>
<linearGradient id="paint72_linear_0_6086" x1="589.635" y1="195.966" x2="654.97" y2="339.291" gradientUnits="userSpaceOnUse">
<stop offset="0.00359712" stop-color="#E38DDD"/>
<stop offset="1" stop-color="#9571F6"/>
</linearGradient>
<linearGradient id="paint73_linear_0_6086" x1="599.884" y1="219.271" x2="638.396" y2="303.753" gradientUnits="userSpaceOnUse">
<stop offset="0.00359712" stop-color="#E38DDD"/>
<stop offset="1" stop-color="#9571F6"/>
</linearGradient>
<linearGradient id="paint74_linear_0_6086" x1="625.976" y1="237.49" x2="636.158" y2="253.665" gradientUnits="userSpaceOnUse">
<stop offset="0.00359712" stop-color="#E38DDD"/>
<stop offset="1" stop-color="#9571F6"/>
</linearGradient>
<linearGradient id="paint75_linear_0_6086" x1="641.56" y1="280.764" x2="634.441" y2="309.053" gradientUnits="userSpaceOnUse">
<stop stop-color="#FFC444"/>
<stop offset="0.9964" stop-color="#F36F56"/>
</linearGradient>
<linearGradient id="paint76_linear_0_6086" x1="618.068" y1="208.006" x2="658.546" y2="296.802" gradientUnits="userSpaceOnUse">
<stop offset="0.00359712" stop-color="#E38DDD"/>
<stop offset="1" stop-color="#9571F6"/>
</linearGradient>
<linearGradient id="paint77_linear_0_6086" x1="608.303" y1="195.683" x2="638.921" y2="262.849" gradientUnits="userSpaceOnUse">
<stop stop-color="#FF9085"/>
<stop offset="1" stop-color="#FB6FBB"/>
</linearGradient>
<linearGradient id="paint78_linear_0_6086" x1="635.901" y1="236.366" x2="625.961" y2="252.437" gradientUnits="userSpaceOnUse">
<stop stop-color="#FFC444"/>
<stop offset="0.9964" stop-color="#F36F56"/>
</linearGradient>
<linearGradient id="paint79_linear_0_6086" x1="629.026" y1="253.321" x2="697.718" y2="253.321" gradientUnits="userSpaceOnUse">
<stop stop-color="#311944"/>
<stop offset="1" stop-color="#6B3976"/>
</linearGradient>
<linearGradient id="paint80_linear_0_6086" x1="631.945" y1="231.671" x2="625.659" y2="250.929" gradientUnits="userSpaceOnUse">
<stop stop-color="#FFC444"/>
<stop offset="0.9964" stop-color="#F36F56"/>
</linearGradient>
<linearGradient id="paint81_linear_0_6086" x1="627.716" y1="230.817" x2="629.468" y2="234.661" gradientUnits="userSpaceOnUse">
<stop stop-color="#AB316D"/>
<stop offset="1" stop-color="#792D3D"/>
</linearGradient>
<linearGradient id="paint82_linear_0_6086" x1="252.937" y1="166.257" x2="249.859" y2="149.006" gradientUnits="userSpaceOnUse">
<stop stop-color="#444B8C"/>
<stop offset="0.9964" stop-color="#26264F"/>
</linearGradient>
<linearGradient id="paint83_linear_0_6086" x1="248.97" y1="162.498" x2="252.143" y2="135.743" gradientUnits="userSpaceOnUse">
<stop stop-color="#FFC444"/>
<stop offset="0.9964" stop-color="#F36F56"/>
</linearGradient>
<linearGradient id="paint84_linear_0_6086" x1="258.815" y1="163.665" x2="261.988" y2="136.911" gradientUnits="userSpaceOnUse">
<stop stop-color="#FFC444"/>
<stop offset="0.9964" stop-color="#F36F56"/>
</linearGradient>
<linearGradient id="paint85_linear_0_6086" x1="260.555" y1="164.897" x2="257.476" y2="147.646" gradientUnits="userSpaceOnUse">
<stop stop-color="#444B8C"/>
<stop offset="0.9964" stop-color="#26264F"/>
</linearGradient>
<linearGradient id="paint86_linear_0_6086" x1="253.496" y1="104.493" x2="244.482" y2="159.483" gradientUnits="userSpaceOnUse">
<stop stop-color="#311944"/>
<stop offset="1" stop-color="#893976"/>
</linearGradient>
<linearGradient id="paint87_linear_0_6086" x1="253.496" y1="104.493" x2="244.482" y2="159.483" gradientUnits="userSpaceOnUse">
<stop stop-color="#311944"/>
<stop offset="1" stop-color="#893976"/>
</linearGradient>
<linearGradient id="paint88_linear_0_6086" x1="288.146" y1="132.451" x2="243.366" y2="125.072" gradientUnits="userSpaceOnUse">
<stop stop-color="#311944"/>
<stop offset="1" stop-color="#893976"/>
</linearGradient>
<linearGradient id="paint89_linear_0_6086" x1="220.115" y1="136.351" x2="260.157" y2="71.9055" gradientUnits="userSpaceOnUse">
<stop stop-color="#FF9085"/>
<stop offset="1" stop-color="#FB6FBB"/>
</linearGradient>
<linearGradient id="paint90_linear_0_6086" x1="277.134" y1="65.5836" x2="238.164" y2="107.78" gradientUnits="userSpaceOnUse">
<stop stop-color="#FF9085"/>
<stop offset="1" stop-color="#FB6FBB"/>
</linearGradient>
<linearGradient id="paint91_linear_0_6086" x1="265.783" y1="51.9799" x2="258.915" y2="60.6142" gradientUnits="userSpaceOnUse">
<stop stop-color="#FFC444"/>
<stop offset="0.9964" stop-color="#F36F56"/>
</linearGradient>
<linearGradient id="paint92_linear_0_6086" x1="285.522" y1="68.9548" x2="271.678" y2="86.3587" gradientUnits="userSpaceOnUse">
<stop stop-color="#444B8C"/>
<stop offset="0.9964" stop-color="#26264F"/>
</linearGradient>
<linearGradient id="paint93_linear_0_6086" x1="284.324" y1="69.3128" x2="272.3" y2="87.1226" gradientUnits="userSpaceOnUse">
<stop stop-color="#FFC444"/>
<stop offset="0.9964" stop-color="#F36F56"/>
</linearGradient>
<linearGradient id="paint94_linear_0_6086" x1="284.479" y1="67.609" x2="287.923" y2="62.2052" gradientUnits="userSpaceOnUse">
<stop stop-color="#AA80F9"/>
<stop offset="0.9964" stop-color="#6165D7"/>
</linearGradient>
<linearGradient id="paint95_linear_0_6086" x1="287.097" y1="76.671" x2="283.776" y2="80.8471" gradientUnits="userSpaceOnUse">
<stop stop-color="#FFC444"/>
<stop offset="0.9964" stop-color="#F36F56"/>
</linearGradient>
<linearGradient id="paint96_linear_0_6086" x1="233.648" y1="144.758" x2="273.689" y2="80.3136" gradientUnits="userSpaceOnUse">
<stop stop-color="#FF9085"/>
<stop offset="1" stop-color="#FB6FBB"/>
</linearGradient>
<linearGradient id="paint97_linear_0_6086" x1="229.175" y1="87.2301" x2="258.377" y2="40.2298" gradientUnits="userSpaceOnUse">
<stop stop-color="#444B8C"/>
<stop offset="0.9964" stop-color="#26264F"/>
</linearGradient>
</defs>
</svg>
